<?xml version="1.0" encoding="utf-8"?>
<!-- Generator: Adobe Illustrator 23.0.0, SVG Export Plug-In . SVG Version: 6.00 Build 0)  -->
<svg version="1.1" id="Layer_1" xmlns="http://www.w3.org/2000/svg" xmlns:xlink="http://www.w3.org/1999/xlink" x="0px" y="0px"
	 viewBox="0 0 260 260" style="enable-background:new 0 0 260 260;" xml:space="preserve">
<style type="text/css">
	.st0{fill:#231F20;}
</style>
<g>
	<path class="st0" d="M133.9,181.5c-5.1,0-9,4-8.9,9.2c0,5,4.1,9.1,9.2,9c5.1-0.1,9-4.1,9-9.2C143.1,185.4,139,181.5,133.9,181.5z
		 M134,196.4c-3.2,0-5.6-2.4-5.6-5.6c0-3.2,2.3-5.7,5.4-5.8c3.3-0.1,5.9,2.5,5.9,5.8C139.7,194,137.1,196.4,134,196.4z"/>
	<path class="st0" d="M173.8,177c-1.9-6.1-7.6-7.1-18.6-3.1c6.5-8.7,7-15,1.9-18.7c-3.6-2.5-6.9-1.8-10.1,0.7
		c-2.9,2.2-4.4,5.6-6.3,9.6c0-5.1-0.4-9.1-3-12.6c-2.3-3.2-5.4-4.6-9.2-3.5c-3.6,1.1-5.3,4-5.7,7.6c-0.4,3.6,0.2,7,1.3,10.5
		c-2-1.6-3.5-3.7-5.4-5.2c-4.9-3.9-10.6-3.8-13.7,0c-2.9,3.5-2.1,9,2.2,13.3c1.5,1.5,3.2,2.7,5.3,4.4c-3.6-0.2-6.5-1-9.5-0.3
		c-4.9,1.1-8,3.9-8.2,7.8c-0.3,4.2,2.6,7.4,7.5,9c2.9,0.9,6,0.3,9.7,0.6c-4,2.4-7.4,4.5-9.3,8.1c-3.1,6,0.8,12.1,7.5,11.9
		c3.1-0.1,5.7-1.4,8.1-3.3c1.1-0.9,2.2-1.8,3.7-2.9c-2.8,10.9-1.3,16.6,4.5,17.9c2.1,0.5,4.2,0.2,6.1-1c4.9-3.1,5.6-8.4,6.5-13.8
		c3.9,9.7,8.8,13.5,14.4,11.3c5.6-2.2,6.1-7.7,1.5-18.8c3.1,1.4,5.8,2.9,8.9,3c4.1,0.1,7.3-1.3,8.8-5.2c1.6-4,0-7.2-2.9-9.8
		c-2.6-2.3-5.8-3.3-9.6-4.1C171.6,187.2,175.7,183,173.8,177z M153,190.8c4.6,2.4,10.4,4,7.5,10.7c-1.5,3.4-5.7,3.5-12.1,0.6
		c0.9,2.5,2.6,4.5,2.6,7.1c0,2.8-0.8,5-3.6,6.1c-3.6,1.4-6.7-0.9-9.9-8c-0.5,2.9-0.7,5.3-2.1,7.3c-1.6,2.3-3.6,3.6-6.5,2.9
		c-4.1-1-5-4.8-2.9-12.9c-2.1,2-3.9,3.6-6.3,4.4c-2.7,0.9-5.1,0.5-6.9-1.6c-2.7-3.2-1.1-6.5,5.4-11.8c-8-0.3-11.8-2.5-11.4-6.8
		c0.4-4.1,4.4-5.9,11.9-5.3c-6.1-5.6-7.4-9.1-4.7-12.2c2.7-3.1,6.9-2.2,12.7,3c-0.9-8.3,0.3-11.7,4.6-12.1c3.9-0.4,6.2,2.6,7.7,10.4
		c4-6.4,7.1-8.3,10.5-6.4c3.8,2.1,3.8,6-0.1,12.9c7.7-2.1,11.2-1.3,12.3,2.7C162.8,185.8,160,188.7,153,190.8z"/>
	<path class="st0" d="M130.6,1.6C59.6,1.6,2.1,59.1,2.1,130s57.5,128.4,128.4,128.4C201.5,258.5,259,201,259,130
		S201.5,1.6,130.6,1.6z M210.5,205.5c-0.6,2.6-2.5,1.8-4.3,1.3c-6.8-1.7-11.1-6.3-14.7-12.3c-1.9,2.4-1.4,5.2-2,7.7
		c-3,12.2-9.5,22.4-17.6,31.8c-0.9,1.1-2.5,2.2-2.6,3.3c-0.1,7.1-4.9,6.4-9.8,6.4c-17.9-0.1-35.7-0.1-53.6,0c-3.5,0-6.1-0.4-6-4.8
		c0.1-2-1.5-3.2-2.7-4.5C86,222,78.4,207.8,77.4,190.6c-0.1-1-0.4-2.2-0.9-3c-10.9-16.2-10.7-33.8-6.9-52c1.7-8.1,3.8-16.1,3.3-24.5
		C72.2,98.8,66.7,89.6,55,84.6c-1.5-0.6-2.9-1.2-4.5-1.8c6.1-8.4,12.2-8.9,19.5-1.5c10.2,10.4,13.2,23.2,12.3,37.3
		c-0.6,9.9-3,19.6-5,29.2c-1.5,7.4-0.3,14.3,2.6,21c1.9-0.1,1.6-1.7,2-2.8c5-12.7,12.1-24.2,21.1-34.4c19.7-22.5,17.1-61.2,4.7-79.6
		c-5.5-8.1-5.4-8.2,4.6-8.8c1.1-0.1,2.9,0.8,2.9-1.2c0-1.6-1.6-0.9-2.5-1.1c-3.5-1-1.2-2.6-0.1-3.5c3.9-3.3,8.7-4,13.5-4.9
		c1.2-0.2,2.4-0.2,3.8-0.3c-4.5-6.6-4.8-10.6-0.8-13.9c3.5-2.9,7.3-2.9,10.8,0.1c3.8,3.3,3.4,7.7-1.1,13.6c5.3,0.6,10.3,1.3,15,3.6
		c1.7,0.9,4,1.7,3.9,4c-0.1,2.3-2.3,0.7-3.4,1.4c-0.4,0.2-0.8,0.7-0.8,1.1c-0.1,0.9,0.7,1.1,1.4,1.1c2.5,0,5.1-0.1,7.6,0.1
		c3.3,0.2,4.2,1.6,1.9,4.4c-6.8,8.3-10.4,17.7-12,28.4c-0.9,5.7,4.1,9.9,1.6,16c3.1-1.3,3-3.2,3.7-4.5c5.6-12.2,13.8-15.8,29.6-12.9
		c11.9,2.2,20.6,11.2,21.5,22.4c1,12.9-3.3,24.9-6,37.1c-2.9,13-6.7,25.7-8.7,38.9c-1.1,7-1.1,14,2.9,20.4c2.7,4.3,6.2,7.4,11.2,8.8
		C209.5,202.8,211,203.5,210.5,205.5z"/>
	<path class="st0" d="M188.6,80.3c-16.7-4.1-23.5-0.8-27.9,11.8c-1.5,4.5-4.3,6.9-9.4,4.6c0.9,14.6,7.4,26.2,15.9,36.9
		c9,11.3,16.6,23.4,21.1,37.4c1.9-2.4,1.6-5.3,2.1-7.8c4.1-19.1,9.8-37.8,13.1-57.1C205.6,93.5,200,83.1,188.6,80.3z"/>
</g>
</svg>
