<?xml version="1.0" encoding="utf-8"?>
<!-- Generator: Adobe Illustrator 22.0.0, SVG Export Plug-In . SVG Version: 6.00 Build 0)  -->
<svg version="1.1" id="Layer_1" xmlns="http://www.w3.org/2000/svg" xmlns:xlink="http://www.w3.org/1999/xlink" x="0px" y="0px"
	 viewBox="0 0 66.4 66.4" style="enable-background:new 0 0 66.4 66.4;" xml:space="preserve">
<style type="text/css">
	.st0{stroke:#000000;stroke-width:0.75;stroke-miterlimit:10;}
	.st1{enable-background:new    ;}
	.st2{stroke:#000000;stroke-miterlimit:10;}
</style>
<path d="M33.2,66C15.1,66,0.4,51.3,0.4,33.2S15.1,0.4,33.2,0.4S66,15.1,66,33.2C65.9,51.3,51.2,65.9,33.2,66z M33.2,2.2
	c-17.1,0-31,13.9-31,31s13.9,31,31,31s31-13.9,31-31C64.2,16.1,50.2,2.2,33.2,2.2z"/>
<path class="st0" d="M24,28.5c-1.1,0.7-1.9,2.3-1.4,3.5c0.1,0.1,0,0.4-0.1,0.4c-0.1,0.1-0.2,0.1-0.3,0c-0.1,0-0.1-0.1-0.2-0.1
	c-0.4-0.7-0.4-1.6,0-2.4c0.3-0.8,0.9-1.5,1.6-1.9c0.6-0.4,1.1-0.9,1.3-1.6c0.3-0.7,0.3-1.4,0-1.8c-0.1-0.1,0-0.4,0.1-0.4
	c0.1-0.1,0.4,0,0.4,0.1c0.4,0.7,0.4,1.6,0.1,2.4C25.3,27.4,24.7,28.2,24,28.5L24,28.5z M28.9,29.2l-0.6,1.8c-0.9,2.6-3.9,4-6.5,3.1
	c-2.6-0.9-4-3.9-3.1-6.5l0.6-1.8c0.9-2.6,3.9-4,6.5-3.1C28.6,23.5,29.9,26.5,28.9,29.2L28.9,29.2z M28.3,28.9
	c0.9-2.3-0.4-4.8-2.6-5.7l0,0c-2.3-0.9-4.8,0.4-5.7,2.6l-0.6,1.8c-0.9,2.3,0.4,4.8,2.6,5.7c2.3,0.9,4.8-0.4,5.7-2.6L28.3,28.9z"/>
<g class="st1">
	<path class="st2" d="M49.5,53H16.8c-0.2,0-0.4-0.1-0.5-0.4c-0.1-0.1-0.1-0.5,0.1-0.6l29.2-39H18.9c-0.4,0-0.6-0.3-0.6-0.6
		c0-0.3,0.3-0.6,0.6-0.6h27.8c0.2,0,0.4,0.1,0.5,0.4c0.1,0.1,0.1,0.5-0.1,0.6L18,51.8h31.4c0.3,0,0.6,0.3,0.6,0.6
		C50.1,52.8,49.8,53,49.5,53z"/>
	<path class="st2" d="M49.5,53H16.8c-0.2,0-0.4-0.1-0.5-0.4c-0.1-0.1-0.1-0.5,0.1-0.6l29.2-39H18.9c-0.4,0-0.6-0.3-0.6-0.6
		c0-0.3,0.3-0.6,0.6-0.6h27.8c0.2,0,0.4,0.1,0.5,0.4c0.1,0.1,0.1,0.5-0.1,0.6L18,51.8h31.4c0.3,0,0.6,0.3,0.6,0.6
		C50.1,52.8,49.8,53,49.5,53z"/>
</g>
<path d="M42.5,41.6c0.3,0,0.6-0.2,0.6-0.5l0,0c0.4-1.1,0.4-2.2,0.1-3.3c2.3,0,4.6-1.1,6-2.9c0.2-0.2,0.2-0.6,0.1-0.8
	c-1.4-2.1-3.6-3.4-6.1-3.5c-2.5-0.1-4.9,1-6.4,2.9c0,0,0,0.1-0.1,0.1c0,0.1-0.1,0.1-0.1,0.1l0,0c-0.6,1.8-0.2,3.8,0.9,5.4
	C38.7,40.7,40.6,41.6,42.5,41.6z M38.8,33.4c1.2-1,2.8-1.6,4.4-1.5c1.8,0.1,3.6,1,4.8,2.5c-1.2,1.4-2.9,2.1-4.8,2.1
	c-0.1,0-0.1,0-0.3,0c-0.1,0-0.1,0-0.1,0c-0.1-0.3-0.3-0.6-0.5-0.8C41.4,34.6,40.1,33.8,38.8,33.4z M38.7,38.3
	c-0.8-1.1-1.1-2.4-0.9-3.7c1.3,0.1,2.5,0.8,3.3,1.8c0.8,1.1,1.1,2.4,0.9,3.7C40.7,40.1,39.5,39.4,38.7,38.3z"/>
</svg>
