<?xml version="1.0" encoding="utf-8"?>
<!-- Generator: Adobe Illustrator 22.0.0, SVG Export Plug-In . SVG Version: 6.00 Build 0)  -->
<svg version="1.1" id="Layer_1" xmlns="http://www.w3.org/2000/svg" xmlns:xlink="http://www.w3.org/1999/xlink" x="0px" y="0px"
	 viewBox="0 0 241.2 291.5" style="enable-background:new 0 0 241.2 291.5;" xml:space="preserve">
<style type="text/css">
	.st0{fill:#C35426;}
</style>
<title>Asset 1</title>
<g>
	<g>
		<path class="st0" d="M52.8,27.4c-6.1,1.2-12.1,3.4-17.9,5.9c9,3.5,19.9,10.3,21.1,19.5c4,0.8,8.5,1.8,14.7,3.2
			c2.3,0.5,4.5,1,6.8,1.3C75.5,44.2,63.9,33.9,52.8,27.4z"/>
		<path class="st0" d="M54.5,52.6c-2.5-8.5-12-15.1-20.1-19c-3.3,1.4-6.5,3-9.5,4.5c4.1,2.3,7.8,5.5,8.4,9.6c3.8,0.9,7.9,2,12.4,3
			C48.7,51.4,51.5,52,54.5,52.6z"/>
		<path class="st0" d="M26,59.5c4.5,4.3,8.8,8.4,13.6,11.8c10-1,23.2-4.5,29.1-13.2c-2.6-0.5-5.2-1-7.8-1.4
			c-5.4-0.9-10.7-2.3-16.1-3.7C40.8,58,33.4,59.6,26,59.5z"/>
		<path class="st0" d="M32.3,47.5c-1.2-3.7-4.5-6.7-8.1-9c-0.8,0.4-1.6,0.8-2.3,1.2c-3,1.5-5.9,3.1-8.6,5
			C19.4,44.5,25.4,45.8,32.3,47.5z"/>
		<path class="st0" d="M43.3,52.5c-5.2-1.4-10.3-2.7-15.6-3.6c-5.3-0.9-10.1-1.7-15.3-1.8c2.8,1.4,6.8,5.8,7.8,6.7
			c1.6,1.5,3.2,3.1,4.7,4.5C31.7,58.1,38.7,56.6,43.3,52.5z"/>
		<path class="st0" d="M79.5,56.7L79,57.7c4.3,0.6,8.6,1,12.9,1.6c1.2-4.2,1.5-8.7,0.8-13.5c-1.6-10.1-11.3-15.8-20.6-18.2
			c-5.7-1.5-11.7-1.4-17.6-0.4C66.4,33.1,78.7,43.1,79.5,56.7z"/>
		<path class="st0" d="M84.5,61.3c-2.6,10.5-17.1,16.1-27.1,18c14.8,3.3,28.2-4.4,33.4-16.9C88.7,62.1,86.6,61.8,84.5,61.3z"/>
		<path class="st0" d="M83.1,61.1c-4.3-0.9-8.6-1.8-12.9-2.7c-4.7,9.9-19.3,13.1-30.1,13.3c4.7,3.2,10,5.9,16.3,7.5
			c0.2,0,0.4,0.1,0.5,0.1C66.3,76.7,79.3,70.8,83.1,61.1z"/>
	</g>
	<path class="st0" d="M154.8,291.5l-3.5-3c12.8-14.9,26.8-49,30.1-64.7c6.3-30.5,3.3-65.6-7.6-89.4c-17.3-38-42.8-61-77.9-70.4
		l1.2-4.4c36.5,9.8,63,33.6,80.9,72.9c5.8,12.7,9.6,28.5,10.8,45.5c1.2,15.8,0.2,31.9-2.9,46.7C182.5,240.9,168,276.1,154.8,291.5
		L154.8,291.5z"/>
	<g>
		<path class="st0" d="M86.9,83.4c-5.3,3.2-10.3,7.2-14.9,11.4c9.7,0.4,22.2,3.2,26.4,11.5c4-0.5,8.6-1.1,15-1.8
			c2.3-0.2,4.6-0.6,6.9-1C113.9,91.8,99.5,85.9,86.9,83.4z"/>
		<path class="st0" d="M96.8,106.5c-5.2-7.2-16.3-10.3-25.2-11.3c-2.6,2.4-5.1,4.9-7.5,7.4c4.6,0.8,9.2,2.7,11.1,6.3
			c3.9-0.4,8.1-0.7,12.7-1.2C90.9,107.3,93.7,107,96.8,106.5z"/>
		<path class="st0" d="M72,122.4c5.6,2.6,11.1,5.1,16.7,6.7c9.1-4.2,20.5-11.8,23.1-22c-2.6,0.4-5.3,0.7-7.8,1.2
			c-5.4,0.9-10.9,1.4-16.4,1.8C85.6,116.2,79.1,120.1,72,122.4z"/>
		<path class="st0" d="M74.1,109c-2.3-3.1-6.5-4.9-10.6-5.9c-0.6,0.6-1.2,1.3-1.8,1.9c-2.3,2.4-4.5,4.9-6.5,7.6
			C60.9,110.4,67,109.6,74.1,109z"/>
		<path class="st0" d="M86.1,110.1c-5.3,0.4-10.7,0.8-15.9,1.7c-5.3,0.9-10.1,1.7-15.1,3.3c3.2,0.4,8.3,3.2,9.5,3.8
			c2,0.9,4,1.9,5.9,2.8C77,119.3,83.1,115.6,86.1,110.1z"/>
		<path class="st0" d="M121.7,102.3l-0.2,1.1c4.3-0.8,8.5-1.9,12.7-2.7c-0.2-4.3-1.4-8.7-3.7-13c-4.8-9-15.9-11.3-25.4-10.5
			c-5.9,0.5-11.5,2.5-16.8,5.4C101.6,84.2,116.6,89.7,121.7,102.3z"/>
		<path class="st0" d="M128,105c1,10.7-10.9,20.8-19.8,25.9c15.1-1.7,25.2-13.4,26.1-26.9C132.2,104.4,130.1,104.7,128,105z"/>
		<path class="st0" d="M126.5,105.2c-4.3,0.6-8.7,1.1-13.1,1.6c-1.2,10.9-14,18.6-24.1,22.4c5.5,1.5,11.3,2.3,17.9,1.7
			c0.2,0,0.4,0,0.5-0.1C115.7,125.5,126.1,115.7,126.5,105.2z"/>
	</g>
	<g>
		<path class="st0" d="M151.5,23.5c-3.8-4.3-8.3-8-13-11.5c1.4,8.8,1,20.6-5.7,25.9c1.2,3.5,2.5,7.6,4.3,13.2c0.6,2.1,1.3,4.1,2.1,6
			C148.7,49.3,151.4,35.3,151.5,23.5z"/>
		<path class="st0" d="M132.3,36.5c5.6-5.9,6.4-16.6,5.7-24.8c-2.7-1.9-5.4-3.8-8-5.5c0.1,4.3-0.8,8.8-3.7,11.2
			c1,3.4,2.1,7.2,3.3,11.2C130.5,31.4,131.3,33.8,132.3,36.5z"/>
		<path class="st0" d="M113.6,17c-1.4,5.6-2.6,10.9-3.1,16.3c5.5,7.5,14.4,16.4,24,17c-0.8-2.3-1.6-4.6-2.5-6.9
			c-1.8-4.7-3.2-9.6-4.5-14.5C121.6,28.1,116.9,23,113.6,17z"/>
		<path class="st0" d="M126.1,16.5c2.4-2.7,3.3-6.7,3.4-10.6c-0.7-0.4-1.3-0.9-2-1.3c-2.6-1.7-5.2-3.2-8-4.6
			C122.4,4.8,124.2,10.2,126.1,16.5z"/>
		<path class="st0" d="M127.1,27.5c-1.3-4.7-2.6-9.5-4.4-14c-1.8-4.6-3.3-8.8-5.7-13c0.2,2.9-1.4,8.1-1.7,9.3c-0.5,2-1,3.9-1.4,5.8
			C117.2,20.9,121.7,25.8,127.1,27.5z"/>
		<path class="st0" d="M140.6,58.3l-1,0c1.5,3.7,3.2,7.3,4.7,11c3.9-1,7.6-2.8,11.1-5.6c7.3-6,7.3-16.3,5-24.8
			c-1.5-5.2-4.3-9.9-7.9-14.2C153.3,36.9,151,51.4,140.6,58.3z"/>
		<path class="st0" d="M139.2,64.4c-9.5,2.8-20.7-6.2-26.9-13.2c4.2,13.3,16.6,20.4,28.9,18.7C140.5,68.1,139.9,66.3,139.2,64.4z"/>
		<path class="st0" d="M138.8,63.2c-1.3-3.8-2.5-7.7-3.8-11.5c-10.1,0.8-19.3-9.3-24.5-17.8c-0.4,5.3,0,10.6,1.6,16.5
			c0,0.2,0.1,0.3,0.1,0.5C118.6,57,129.3,64.7,138.8,63.2z"/>
	</g>
	<g>
		<path class="st0" d="M142,136.6c-5.7,0.8-11.3,2.5-16.7,4.5c8.1,3.7,17.7,10.5,18.4,19.1c3.6,1,7.7,2.1,13.4,3.8
			c2.1,0.6,4.1,1.1,6.2,1.6C162,153.2,151.8,143.1,142,136.6z"/>
		<path class="st0" d="M142.2,159.8c-1.9-8-10.3-14.5-17.5-18.5c-3.1,1.2-6.1,2.4-9,3.6c3.6,2.3,6.9,5.5,7.3,9.3
			c3.4,1.1,7.1,2.2,11.2,3.4C136.9,158.4,139.5,159,142.2,159.8z"/>
		<path class="st0" d="M115.6,164.6c3.9,4.2,7.6,8.2,11.9,11.6c9.3-0.4,21.6-2.9,27.4-10.6c-2.4-0.6-4.7-1.2-7.1-1.7
			c-4.9-1.1-9.7-2.7-14.6-4.2C129.3,164,122.4,165.1,115.6,164.6z"/>
		<path class="st0" d="M122.1,153.9c-0.9-3.4-3.8-6.4-7-8.7c-0.7,0.3-1.5,0.6-2.2,0.9c-2.8,1.2-5.6,2.6-8.2,4.1
			C110.3,150.5,115.8,151.9,122.1,153.9z"/>
		<path class="st0" d="M131.9,159.1c-4.7-1.5-9.4-3-14.1-4.1c-4.8-1.1-9.2-2.1-14-2.4c2.5,1.5,6,5.7,6.8,6.5c1.4,1.5,2.7,3,4.1,4.4
			C120.9,163.7,127.5,162.7,131.9,159.1z"/>
		<path class="st0" d="M165,164.9l-0.5,0.8c3.9,0.8,7.9,1.4,11.8,2.1c1.3-3.8,1.9-7.9,1.4-12.3c-0.9-9.4-9.6-15.1-17.9-17.8
			c-5.2-1.7-10.7-1.9-16.2-1.3C154.2,142.5,165,152.4,165,164.9z"/>
		<path class="st0" d="M169.3,169.4c-2.9,9.5-16.6,13.9-25.9,15.1c13.4,3.9,26.1-2.6,31.6-13.7C173.1,170.4,171.2,169.9,169.3,169.4
			z"/>
		<path class="st0" d="M168,169.1c-3.9-1-7.8-2.1-11.7-3.2c-4.9,8.9-18.4,11-28.4,10.6c4.2,3.2,8.8,5.9,14.6,7.7
			c0.2,0,0.3,0.1,0.5,0.1C151.7,182.5,164,177.8,168,169.1z"/>
	</g>
	<g>
		<path class="st0" d="M198.5,84.1c-0.6-4.6-1.9-9.1-3.4-13.5c-3.1,6.5-8.7,14.1-15.6,14.5c-0.8,2.9-1.8,6.2-3.2,10.7
			c-0.5,1.6-1,3.3-1.3,5C184.9,100,193.1,91.9,198.5,84.1z"/>
		<path class="st0" d="M179.9,84c6.4-1.4,11.8-8.1,15.1-13.8c-0.9-2.5-1.8-4.9-2.8-7.3c-1.9,2.9-4.5,5.4-7.6,5.7
			c-0.9,2.7-1.9,5.7-2.9,9C181.1,79.8,180.5,81.8,179.9,84z"/>
		<path class="st0" d="M176.4,62.5c-3.5,3.1-6.7,6-9.5,9.4c0.2,7.5,2,17.4,8.2,22.2c0.5-1.9,1-3.8,1.5-5.7c1-3.9,2.3-7.8,3.6-11.6
			C176.6,73.6,175.9,68,176.4,62.5z"/>
		<path class="st0" d="M184.9,67.9c2.8-0.7,5.2-3,7.1-5.5c-0.2-0.6-0.5-1.2-0.7-1.8c-0.9-2.3-2-4.5-3.2-6.7
			C187.8,58.5,186.5,62.9,184.9,67.9z"/>
		<path class="st0" d="M180.6,75.7c1.3-3.7,2.6-7.5,3.5-11.3c0.9-3.9,1.8-7.4,2.2-11.2c-1.2,2-4.6,4.7-5.3,5.4
			c-1.2,1.1-2.4,2.2-3.6,3.2C177,66.8,177.7,72.1,180.6,75.7z"/>
		<path class="st0" d="M175.4,102.2l-0.7-0.4c-0.7,3.1-1.2,6.3-1.9,9.4c3,1.1,6.3,1.6,9.9,1.3c7.6-0.6,12.3-7.5,14.6-14.2
			c1.4-4.1,1.7-8.5,1.3-13C193.6,93.8,185.5,102.4,175.4,102.2z"/>
		<path class="st0" d="M171.7,105.6c-7.6-2.5-10.9-13.5-11.8-21c-3.3,10.7,1.7,21.1,10.6,25.6C170.9,108.7,171.3,107.1,171.7,105.6z
			"/>
		<path class="st0" d="M172,104.6c0.9-3.1,1.8-6.2,2.7-9.4c-7.1-4-8.6-15-8.1-23c-2.7,3.3-4.9,7-6.4,11.6c0,0.1-0.1,0.3-0.1,0.4
			C161.4,91.3,165,101.3,172,104.6z"/>
	</g>
	<g>
		<path class="st0" d="M228.9,141.3c0-4.6-0.7-9.3-1.7-13.8c-3.9,6.1-10.3,13-17.2,12.5c-1.2,2.8-2.5,5.9-4.5,10.2
			c-0.7,1.6-1.4,3.2-1.9,4.8C213.5,155.4,222.6,148.4,228.9,141.3z"/>
		<path class="st0" d="M210.5,138.9c6.5-0.6,12.7-6.6,16.7-11.9c-0.6-2.6-1.2-5.1-1.9-7.6c-2.2,2.6-5.1,4.9-8.2,4.8
			c-1.2,2.6-2.6,5.4-4,8.6C212.1,134.9,211.3,136.8,210.5,138.9z"/>
		<path class="st0" d="M209.6,117.2c-3.8,2.6-7.4,5.2-10.5,8.2c-0.7,7.4-0.1,17.5,5.4,23c0.8-1.8,1.5-3.6,2.2-5.5
			c1.4-3.8,3.2-7.5,5-11.1C208.5,128.2,208.4,122.6,209.6,117.2z"/>
		<path class="st0" d="M217.4,123.6c2.8-0.3,5.5-2.3,7.7-4.6c-0.2-0.6-0.3-1.3-0.5-1.9c-0.7-2.4-1.4-4.7-2.4-7
			C221.4,114.6,219.6,118.7,217.4,123.6z"/>
		<path class="st0" d="M212.2,130.8c1.7-3.6,3.5-7.1,4.8-10.8c1.4-3.7,2.7-7.1,3.5-10.9c-1.4,1.9-5.2,4.1-5.9,4.7
			c-1.3,0.9-2.7,1.8-4,2.7C209.7,121.5,209.8,126.8,212.2,130.8z"/>
		<path class="st0" d="M203.8,156.5l-0.6-0.5c-1.1,3-2,6.1-3,9.1c2.8,1.5,6.1,2.4,9.7,2.5c7.6,0.3,13.1-5.9,16.2-12.3
			c1.9-4,2.7-8.3,2.8-12.7C222.9,150.4,213.8,157.9,203.8,156.5z"/>
		<path class="st0" d="M199.8,159.4c-7.2-3.4-9.2-14.8-9.1-22.3c-4.6,10.3-0.8,21.1,7.4,26.7C198.6,162.3,199.2,160.9,199.8,159.4z"
			/>
		<path class="st0" d="M200.2,158.5c1.2-3,2.6-6,3.8-9c-6.5-4.9-6.7-15.9-5.3-23.8c-3,3-5.7,6.4-7.8,10.8c-0.1,0.1-0.1,0.2-0.2,0.4
			C191.3,144,193.7,154.3,200.2,158.5z"/>
	</g>
	<g>
		<path class="st0" d="M221.6,213.8c1.1-3.5,1.8-7.2,2.2-10.8c-4.4,3.6-11,7.2-16.1,5.1c-1.6,1.8-3.4,3.8-5.9,6.6
			c-0.9,1-1.8,2-2.7,3.1C206.4,220.5,215,217.6,221.6,213.8z"/>
		<path class="st0" d="M208.3,207.4c5.1,1.2,11.2-1.8,15.5-4.7c0.2-2.1,0.4-4.2,0.5-6.2c-2.4,1.4-5.1,2.4-7.4,1.5
			c-1.6,1.7-3.3,3.4-5.1,5.4C210.5,204.8,209.5,206,208.3,207.4z"/>
		<path class="st0" d="M213,190.8c-3.5,1-6.8,2-10,3.5c-2.4,5.4-4.4,13.2-1.7,18.7c1-1.2,2-2.4,3-3.6c2-2.5,4.3-4.8,6.6-7.1
			C209.5,198.8,210.8,194.5,213,190.8z"/>
		<path class="st0" d="M217.3,197.6c2.2,0.5,4.8-0.4,7-1.5c0-0.5,0.1-1,0.1-1.5c0.1-2,0.1-3.9,0-5.9
			C222.6,191.8,220.2,194.5,217.3,197.6z"/>
		<path class="st0" d="M211.6,201.7c2.2-2.2,4.4-4.5,6.4-6.9c2-2.5,3.8-4.6,5.4-7.3c-1.6,1-4.9,1.8-5.6,2c-1.2,0.4-2.5,0.7-3.7,1.1
			C212.1,194.1,210.8,198.1,211.6,201.7z"/>
		<path class="st0" d="M198.9,218.9l-0.3-0.5c-1.6,2-3,4.1-4.6,6.1c1.8,1.8,4,3.3,6.7,4.3c5.6,2.1,11.4-1.2,15.3-5.2
			c2.4-2.5,4.1-5.5,5.3-8.9C214.8,219.1,206,222.5,198.9,218.9z"/>
		<path class="st0" d="M195.1,220.1c-4.6-4.4-3.2-13.4-1.3-19.1c-6,6.6-5.9,15.7-1.1,21.9C193.4,222,194.2,221.1,195.1,220.1z"/>
		<path class="st0" d="M195.6,219.5c1.7-1.9,3.4-3.8,5.1-5.8c-3.7-5.3-1.1-13.6,2-19.2c-3,1.5-5.9,3.4-8.6,6.2
			c-0.1,0.1-0.1,0.2-0.2,0.2C192.6,206.4,191.8,214.7,195.6,219.5z"/>
	</g>
	<g>
		<path class="st0" d="M163.3,206c-3.2-1-6.6-1.6-10-2c3.3,4.1,6.6,10.2,4.8,14.8c1.7,1.4,3.6,3.1,6.1,5.5c0.9,0.9,1.9,1.7,2.9,2.4
			C169.5,219.9,166.7,212,163.3,206z"/>
		<path class="st0" d="M157.4,218.3c1.1-4.7-1.7-10.3-4.4-14.3c-1.9-0.2-3.8-0.3-5.7-0.4c1.3,2.2,2.2,4.7,1.4,6.8
			c1.5,1.4,3.2,3,5,4.7C154.9,216.2,156.1,217.2,157.4,218.3z"/>
		<path class="st0" d="M142.1,213.9c0.9,3.2,1.9,6.3,3.3,9.2c5,2.2,12.1,4.1,17.2,1.5c-1.1-0.9-2.2-1.9-3.3-2.8
			c-2.3-1.9-4.5-3.9-6.6-6C149.4,217.2,145.5,215.9,142.1,213.9z"/>
		<path class="st0" d="M148.3,209.9c0.4-2.1-0.3-4.4-1.4-6.4c-0.5,0-0.9-0.1-1.4-0.1c-1.8-0.1-3.6-0.1-5.4,0.1
			C142.9,205.1,145.4,207.3,148.3,209.9z"/>
		<path class="st0" d="M152.1,215.2c-2.1-2-4.1-4-6.4-5.8c-2.3-1.8-4.3-3.5-6.8-4.9c1,1.4,1.7,4.5,1.9,5.2c0.3,1.2,0.7,2.3,1,3.4
			C145.1,214.8,148.8,216,152.1,215.2z"/>
		<path class="st0" d="M168.1,226.9l-0.5,0.3c1.9,1.4,3.8,2.8,5.7,4.2c1.7-1.6,3-3.7,4-6.2c1.9-5.2-1.1-10.5-4.8-14.1
			c-2.3-2.2-5.1-3.8-8.2-4.9C168.2,212.2,171.3,220.3,168.1,226.9z"/>
		<path class="st0" d="M169.2,230.4c-4,4.2-12.4,3-17.6,1.2c6.1,5.5,14.5,5.4,20.2,1C170.9,231.9,170,231.2,169.2,230.4z"/>
		<path class="st0" d="M168.6,229.9c-1.8-1.5-3.6-3.1-5.3-4.7c-4.9,3.4-12.6,1-17.7-1.8c1.4,2.8,3.1,5.4,5.7,7.9
			c0.1,0.1,0.1,0.1,0.2,0.2C156.5,232.8,164.2,233.5,168.6,229.9z"/>
	</g>
</g>
</svg>
