<?xml version="1.0" encoding="utf-8"?>
<!-- Generator: Adobe Illustrator 22.0.0, SVG Export Plug-In . SVG Version: 6.00 Build 0)  -->
<svg version="1.1" id="Layer_1" xmlns="http://www.w3.org/2000/svg" xmlns:xlink="http://www.w3.org/1999/xlink" x="0px" y="0px"
	 viewBox="0 0 465.5 226.4" style="enable-background:new 0 0 465.5 226.4;" xml:space="preserve">
<style type="text/css">
	.st0{fill:#CC9900;}
	.st1{fill:none;stroke:#CC9900;stroke-width:2;stroke-miterlimit:10;}
	.st2{fill:#CC9900;stroke:#CC9900;stroke-width:0.75;stroke-miterlimit:10;}
	.st3{enable-background:new    ;}
	.st4{fill:#CC9900;stroke:#CC9900;stroke-miterlimit:10;}
</style>
<path class="st0" d="M284.8,197.4c3.6,1,7.2,2,10.8,2.8c0.6,0.1,2-0.5,2-0.9c1.1-6.3,5.7-9,10.8-11.3c1.5-0.7,3-1.2,4.5-1.8
	c0.2,0.3,0.3,0.5,0.5,0.8c-2.9,4.4-5.9,8.8-8.9,13.2c-0.2-0.2-0.1,0,0,0c2.3-0.2,4.6-0.4,7-0.7c4.2-0.5,4.3-0.5,5-4.6
	c1.2-7.3,6.6-10.9,12.6-14.2c-0.5,3.3-1,6.7-2.5,9.5s-4,5.1-6.3,7.8c2.4-0.7,4.6-1.4,6.7-2.1c5.9-1.8,5.9-1.8,6.1-7.6
	c0.2-5.9,5.7-7.9,8.6-12.6c1.2,5.2,1.3,9.5-1.3,13.7c0.2,0.1,0.5,0.2,0.7,0.3c2.5-2,5.1-4,7.6-5.9c-4-7.4,1.8-16.1,7.2-18.7
	c-0.2,2.2-0.3,4.1-0.4,6.1c-0.2,1.9-0.4,3.8-0.6,6.4c1.6-1.7,2.7-2.8,3.8-4c3.1-3.4,4.5-7.2,2.7-11.7c-0.2-0.5-0.4-1-0.6-1.5
	c-1.6-5.2,0.7-10.4,5.9-12.6c0.2,4.1,0.4,8.1,0.7,12.2c1-2.2,2.1-4.4,2.9-6.7c0.5-1.2,1.2-2.8,0.8-3.8c-2.3-7,4.8-15.8,10.7-18.1
	c-0.9,4.3-1.6,8.7-2.8,12.8c-0.6,1.9-2,4.2-3.7,5.1c-3.1,1.6-3.5,4.2-4.4,6.5c2.1-1.5,4.2-3.4,6.6-4.4s5.1-1.1,8.1-1.7
	c-3.3,5.5-8,9.3-12.9,10.3c-2.2,0.5-4.4,0.5-5.3,3.4c-0.6,2.1-2,3.9-3.1,5.8c4.2-3.3,8.4-3.9,13.2-1.9c-2.2,2-4.1,3.8-6.1,5.6
	c-2.6,2.4-5.6,3.7-9.2,3.3c-1.1-0.1-2.6,0-3.3,0.6c-2.5,2.4-4.7,5.2-7,7.8c6-2.1,11.2,1,16.7,2.2c-2.6,1.6-5.2,2.8-7.8,3.9
	c-4.6,2-9.2,1.7-13.6-0.7c-0.5-0.3-1.3-0.5-1.7-0.3c-4,2.4-7.9,4.8-11.8,7.2c0,0.2-0.1,0.5-0.1,0.7c6.9-1.8,12.2,1.6,17.7,5.2
	c-4.1,2.6-8,4.3-12.4,1.7c-2.3-1.4-4.5-3.1-6.8-4.5c-1.1-0.7-2.6-1.4-3.7-1.2c-2.7,0.6-5.3,1.7-8.3,2.8c4.7,2.4,8.9,4.7,13.5,7.1
	c-0.7,0.5-1,0.9-1.4,1c-6,1.7-13.3,2.2-18.2-4.1c-0.7-0.9-1.9-2.1-2.9-2.2c-3.3-0.1-6.6,0.2-10,0.4c4.3,2.2,5.6,6.3,8.3,9.7
	c-5.9,1.5-14.3-1.6-16.4-8c-0.5-1.6-2.7-2.8-4.3-3.8c-1.3-0.9-3.1-1.1-4.5-1.9c-1.1-0.6-2-1.6-3-2.5c0.2-0.3,0.4-0.6,0.7-1
	C283,196.8,283.9,197.1,284.8,197.4z"/>
<path class="st0" d="M176.1,199.1c-3.6,1-7.2,2-10.8,2.8c-0.6,0.1-2-0.5-2-0.9c-1.1-6.3-5.7-9-10.8-11.3c-1.5-0.7-3-1.2-4.5-1.8
	c-0.2,0.3-0.3,0.5-0.5,0.8c2.9,4.4,5.9,8.8,8.9,13.2c0.2-0.2,0.1,0,0,0c-2.3-0.2-4.6-0.4-7-0.7c-4.2-0.5-4.3-0.5-5-4.6
	c-1.2-7.3-6.6-10.9-12.6-14.2c0.5,3.3,1,6.7,2.5,9.5s4,5.1,6.3,7.8c-2.4-0.7-4.6-1.4-6.7-2.1c-5.9-1.8-5.9-1.8-6.1-7.6
	c-0.2-5.9-5.7-7.9-8.6-12.6c-1.2,5.2-1.3,9.5,1.3,13.7c-0.2,0.1-0.5,0.2-0.7,0.3c-2.5-2-5.1-4-7.6-5.9c4-7.4-1.8-16.1-7.2-18.7
	c0.2,2.2,0.3,4.1,0.4,6.1c0.2,1.9,0.4,3.8,0.6,6.4c-1.6-1.7-2.7-2.8-3.8-4c-3.1-3.4-4.5-7.2-2.7-11.7c0.2-0.5,0.4-1,0.6-1.5
	c1.6-5.2-0.7-10.4-5.9-12.6c-0.2,4.1-0.4,8.1-0.7,12.2c-1-2.2-2.1-4.4-2.9-6.7c-0.5-1.2-1.2-2.8-0.8-3.8c2.3-7-4.8-15.8-10.7-18.1
	c0.9,4.3,1.6,8.7,2.8,12.8c0.6,1.9,2,4.2,3.7,5.1c3.1,1.6,3.5,4.2,4.4,6.5c-2.1-1.5-4.2-3.4-6.6-4.4s-5.1-1.1-8.1-1.7
	c3.3,5.5,8,9.3,12.9,10.3c2.2,0.5,4.4,0.5,5.3,3.4c0.6,2.1,2,3.9,3.1,5.8c-4.2-3.3-8.4-3.9-13.2-1.9c2.2,2,4.1,3.8,6.1,5.6
	c2.6,2.4,5.6,3.7,9.2,3.3c1.1-0.1,2.6,0,3.3,0.6c2.5,2.4,4.7,5.2,7,7.8c-6-2.1-11.2,1-16.7,2.2c2.6,1.6,5.2,2.8,7.8,3.9
	c4.6,2,9.2,1.7,13.6-0.7c0.5-0.3,1.3-0.5,1.7-0.3c4,2.4,7.9,4.8,11.8,7.2c0,0.2,0.1,0.5,0.1,0.7c-6.9-1.8-12.2,1.6-17.7,5.2
	c4.1,2.6,8,4.3,12.4,1.7c2.3-1.4,4.5-3.1,6.8-4.5c1.1-0.7,2.6-1.4,3.7-1.2c2.7,0.6,5.3,1.7,8.3,2.8c-4.7,2.4-8.9,4.7-13.5,7.1
	c0.7,0.5,1,0.9,1.4,1c6,1.7,13.3,2.2,18.2-4.1c0.7-0.9,1.9-2.1,2.9-2.2c3.3-0.1,6.6,0.2,10,0.4c-4.3,2.2-5.6,6.3-8.3,9.7
	c5.9,1.5,14.3-1.6,16.4-8c0.5-1.6,2.7-2.8,4.3-3.8c1.3-0.9,3.1-1.1,4.5-1.9c1.1-0.6,2-1.6,3-2.5c-0.2-0.3-0.4-0.6-0.7-1
	C178,198.5,177.1,198.9,176.1,199.1z"/>
<g>
	<path class="st1" d="M52.2,113.1H19.6c-1.5,0-3-0.9-3.7-2.2c-0.7-1.4-0.6-3.1,0.4-4.3L42.7,72h-21c-2.2,0-4.1-1.8-4.1-4.1
		c0-2.2,1.8-4.1,4.1-4.1H51c1.5,0,3,0.8,3.7,2.2c0.7,1.4,0.6,3.1-0.4,4.3l-26.4,34.6h24.3c2.2,0,4.1,1.8,4.1,4.1
		S54.4,113.1,52.2,113.1z"/>
	<path class="st1" d="M93.7,113.1c-2.2,0-4.1-1.8-4.1-4.1V67.9c0-2.2,1.8-4.1,4.1-4.1s4.1,1.8,4.1,4.1v41.2
		C97.9,111.3,96,113.1,93.7,113.1z"/>
	<path class="st1" d="M168.5,113.1c-1.3,0-2.5-0.6-3.2-1.6l-25.2-31.9V109c0,2.2-1.8,4.1-4.1,4.1c-2.2,0-4.1-1.8-4.1-4.1V67.9
		c0-1.8,1.1-3.3,2.7-3.9c1.7-0.6,3.5-0.1,4.6,1.3l25.2,32V67.9c0-2.3,1.8-4.1,4.1-4.1c2.2,0,4.1,1.8,4.1,4.1v41.2
		c0,1.7-1.1,3.2-2.7,3.8C169.4,113.1,168.9,113.1,168.5,113.1z"/>
	<path class="st1" d="M239.6,106.6c1.3,1.9,0.8,4.4-1,5.8c-1.8,1.3-4.4,0.8-5.7-1l-12.7-17.9l-6.3,7.6v7.9c0,2.3-1.8,4.1-4.1,4.1
		c-2.2,0-4.1-1.8-4.1-4.1V67.8c0-2.2,1.8-4.1,4.1-4.1s4.1,1.8,4.1,4.1v20.5l19.3-23c1.4-1.7,4-2,5.7-0.5c1.8,1.4,2,4,0.6,5.8
		l-13.8,16.5L239.6,106.6z"/>
	<path class="st1" d="M307.2,106.6c1.3,1.9,0.8,4.4-1,5.8c-1.8,1.3-4.4,0.8-5.7-1l-12.7-17.9l-6.3,7.6v7.9c0,2.3-1.8,4.1-4.1,4.1
		c-2.2,0-4.1-1.8-4.1-4.1V67.8c0-2.2,1.8-4.1,4.1-4.1c2.3,0,4.1,1.8,4.1,4.1v20.5l19.3-23c1.4-1.7,4-2,5.7-0.5c1.8,1.4,2,4,0.6,5.8
		l-13.8,16.5L307.2,106.6z"/>
	<path class="st1" d="M361.2,113.1c-11.2,0-20.2-9.1-20.2-20.2v-25c0-2.3,1.8-4.1,4.1-4.1s4.1,1.8,4.1,4.1v25c0,6.6,5.4,12,12.1,12
		c6.6,0,12-5.4,12-12v-25c0-2.3,1.8-4.1,4.1-4.1c2.2,0,4.1,1.8,4.1,4.1v25C381.5,104.1,372.4,113.1,361.2,113.1z"/>
	<path class="st1" d="M450.8,81.6c0,9.9-8,17.9-17.9,17.9h-9.6v9.5c0,2.3-1.8,4.1-4.1,4.1c-2.2,0-4.1-1.8-4.1-4.1V67.8
		c0-2.2,1.8-4.1,4.1-4.1H433C442.8,63.7,450.8,71.8,450.8,81.6z M442.7,81.6c0-5.3-4.4-9.6-9.7-9.6h-9.6v19.3h9.6
		C438.3,91.3,442.7,87,442.7,81.6z"/>
</g>
<g>
	<path d="M113.3,142.3c-3,0-5.4-2.4-5.4-5.4s2.4-5.4,5.4-5.4c1.6,0,3,0.7,4.1,1.8c0.2,0.2,0.2,0.5,0,0.7s-0.5,0.2-0.7,0
		c-0.8-1-2-1.5-3.3-1.5c-2.4,0-4.4,2-4.4,4.4s2,4.4,4.4,4.4c1.3,0,2.5-0.5,3.3-1.5c0.2-0.2,0.5-0.2,0.7,0s0.2,0.5,0,0.7
		C116.4,141.6,114.9,142.3,113.3,142.3z"/>
	<path d="M130.4,142.3c-3,0-5.4-2.4-5.4-5.4s2.4-5.4,5.4-5.4c3,0,5.4,2.4,5.4,5.4S133.4,142.3,130.4,142.3z M130.4,132.5
		c-2.4,0-4.4,2-4.4,4.4s2,4.4,4.4,4.4c2.4,0,4.4-2,4.4-4.4C134.8,134.4,132.8,132.5,130.4,132.5z"/>
	<path d="M150.6,132c0,0.3-0.2,0.5-0.5,0.5h-5.9v3.7h4.3c0.3,0,0.5,0.2,0.5,0.5s-0.2,0.5-0.5,0.5h-4.3v4.7c0,0.3-0.2,0.5-0.5,0.5
		s-0.5-0.2-0.5-0.5v-9.8c0-0.3,0.2-0.5,0.5-0.5h6.4C150.4,131.5,150.6,131.7,150.6,132z"/>
	<path d="M165.5,132c0,0.3-0.2,0.5-0.5,0.5h-5.9v3.7h4.3c0.3,0,0.5,0.2,0.5,0.5s-0.2,0.5-0.5,0.5h-4.3v4.7c0,0.3-0.2,0.5-0.5,0.5
		s-0.5-0.2-0.5-0.5v-9.8c0-0.3,0.2-0.5,0.5-0.5h6.4C165.2,131.5,165.5,131.7,165.5,132z"/>
	<path d="M180.3,141.8c0,0.3-0.2,0.5-0.5,0.5h-6.4c-0.3,0-0.5-0.2-0.5-0.5V132c0-0.3,0.2-0.5,0.5-0.5h6.4c0.3,0,0.5,0.2,0.5,0.5
		s-0.2,0.5-0.5,0.5h-5.9v3.7h4.3c0.3,0,0.5,0.2,0.5,0.5s-0.2,0.5-0.5,0.5h-4.3v4.2h5.9C180.1,141.3,180.3,141.5,180.3,141.8z"/>
	<path d="M195.2,141.8c0,0.3-0.2,0.5-0.5,0.5h-6.4c-0.3,0-0.5-0.2-0.5-0.5V132c0-0.3,0.2-0.5,0.5-0.5h6.4c0.3,0,0.5,0.2,0.5,0.5
		s-0.2,0.5-0.5,0.5h-5.9v3.7h4.3c0.3,0,0.5,0.2,0.5,0.5s-0.2,0.5-0.5,0.5h-4.3v4.2h5.9C194.9,141.3,195.2,141.5,195.2,141.8z"/>
	<path d="M202.9,141.3c0.4,0,0.7,0.3,0.7,0.6c0,0.4-0.3,0.6-0.7,0.6s-0.7-0.3-0.7-0.6C202.3,141.5,202.6,141.3,202.9,141.3z"/>
	<path d="M219.3,132c0,0.3-0.2,0.5-0.5,0.5h-3.2v9.3c0,0.3-0.2,0.5-0.5,0.5s-0.5-0.2-0.5-0.5v-9.3h-3.2c-0.3,0-0.5-0.2-0.5-0.5
		s0.2-0.5,0.5-0.5h7.3C219.1,131.5,219.3,131.7,219.3,132z"/>
	<path d="M234.1,141.8c0,0.3-0.2,0.5-0.5,0.5h-6.4c-0.3,0-0.5-0.2-0.5-0.5V132c0-0.3,0.2-0.5,0.5-0.5h6.4c0.3,0,0.5,0.2,0.5,0.5
		s-0.2,0.5-0.5,0.5h-5.9v3.7h4.3c0.3,0,0.5,0.2,0.5,0.5s-0.2,0.5-0.5,0.5h-4.3v4.2h5.9C233.9,141.3,234.1,141.5,234.1,141.8z"/>
	<path d="M250.9,142.2c-0.1,0-0.1,0-0.2,0c-0.2,0-0.4-0.1-0.4-0.3l-1.1-2.6h-5.4l-1.1,2.6c-0.1,0.2-0.4,0.4-0.6,0.2
		c-0.2-0.1-0.4-0.4-0.3-0.6l4.3-9.8c0.1-0.2,0.3-0.3,0.5-0.3s0.4,0.1,0.4,0.3l4.3,9.8C251.3,141.8,251.1,142.1,250.9,142.2z
		 M248.7,138.4l-2.3-5.2l-2.3,5.2H248.7z"/>
	<path d="M258.9,141.3c0.4,0,0.7,0.3,0.7,0.6c0,0.4-0.3,0.6-0.7,0.6s-0.7-0.3-0.7-0.6C258.3,141.5,258.6,141.3,258.9,141.3z"/>
	<path d="M275.2,139.2c0,1.7-1.4,3-3,3h-4.6c-0.3,0-0.5-0.2-0.5-0.5v-9.8c0-0.3,0.2-0.5,0.5-0.5h4.1c1.6,0,2.8,1.3,2.8,2.8
		c0,0.9-0.4,1.6-1,2.2C274.5,137,275.2,138,275.2,139.2z M271.7,132.5h-3.6v3.7h3.6c1,0,1.8-0.8,1.8-1.9
		C273.5,133.3,272.7,132.5,271.7,132.5z M274.2,139.2c0-1.1-0.9-2.1-2.1-2.1H268v4.2h4.1C273.3,141.3,274.2,140.4,274.2,139.2z"/>
	<path d="M291.9,142.2c-0.1,0-0.1,0-0.2,0c-0.2,0-0.4-0.1-0.4-0.3l-1.1-2.6h-5.4l-1.1,2.6c-0.1,0.2-0.4,0.4-0.6,0.2
		c-0.2-0.1-0.4-0.4-0.3-0.6l4.3-9.8c0.1-0.2,0.3-0.3,0.5-0.3s0.4,0.1,0.4,0.3l4.3,9.8C292.3,141.8,292.2,142.1,291.9,142.2z
		 M289.7,138.4l-2.3-5.2l-2.3,5.2H289.7z"/>
	<path d="M307,142.1c-0.1,0.1-0.2,0.1-0.3,0.1c-0.1,0-0.3,0-0.4-0.1l-4.8-4.8l-0.8,0.8v3.6c0,0.3-0.2,0.5-0.5,0.5s-0.5-0.2-0.5-0.5
		v-9.8c0-0.3,0.2-0.5,0.5-0.5s0.5,0.2,0.5,0.5v4.8l5.2-5.2c0.2-0.2,0.5-0.2,0.7,0s0.2,0.5,0,0.7l-4.3,4.3l4.8,4.8
		C307.2,141.6,307.2,141.9,307,142.1z"/>
	<path d="M322,141.8c0,0.3-0.2,0.5-0.5,0.5h-6.4c-0.3,0-0.5-0.2-0.5-0.5V132c0-0.3,0.2-0.5,0.5-0.5h6.4c0.3,0,0.5,0.2,0.5,0.5
		s-0.2,0.5-0.5,0.5h-5.9v3.7h4.3c0.3,0,0.5,0.2,0.5,0.5s-0.2,0.5-0.5,0.5h-4.3v4.2h5.9C321.8,141.3,322,141.5,322,141.8z"/>
	<path d="M336.7,141.4c0.2,0.2,0.2,0.5,0,0.7c-0.1,0.1-0.2,0.1-0.3,0.1c-0.1,0-0.3,0-0.4-0.2l-3-3.1h-2.6v2.8c0,0.3-0.2,0.5-0.5,0.5
		s-0.5-0.2-0.5-0.5v-9.8c0-0.3,0.2-0.5,0.5-0.5h3.3c2.1,0,3.8,1.7,3.8,3.8c0,1.7-1.2,3.2-2.7,3.6L336.7,141.4z M330.4,138.1h2.8
		c1.5,0,2.8-1.3,2.8-2.8s-1.3-2.8-2.8-2.8h-2.8V138.1z"/>
	<path d="M352.1,132.3l-3.3,4.8v4.7c0,0.3-0.2,0.5-0.5,0.5s-0.5-0.2-0.5-0.5v-4.7l-3.3-4.8c-0.2-0.2-0.1-0.5,0.1-0.7
		s0.5-0.1,0.7,0.1l2.9,4.3l3-4.3c0.2-0.2,0.5-0.3,0.7-0.1C352.1,131.7,352.2,132,352.1,132.3z"/>
</g>
<g>
	<path d="M199.7,45.7c0,0.2-0.2,0.4-0.4,0.4h-5.9c-0.3,0-0.4-0.2-0.4-0.4v-8c0-0.2,0.2-0.4,0.4-0.4h5.9c0.2,0,0.4,0.2,0.4,0.4
		s-0.2,0.4-0.4,0.4h-5.4v3h3.9c0.2,0,0.4,0.2,0.4,0.4s-0.2,0.4-0.4,0.4h-3.9v3.4h5.4C199.5,45.3,199.7,45.5,199.7,45.7z"/>
	<path d="M206.5,46.1c-2,0-3.1-1.2-3.1-2.5c0-0.2,0.2-0.4,0.4-0.4s0.4,0.2,0.4,0.4c0,0.8,0.7,1.7,2.2,1.7s2.2-0.9,2.2-1.7
		c0-1.1-0.9-1.4-2.3-1.7c-1.2-0.3-2.8-0.7-2.8-2.3c0-1.1,1-2.3,2.9-2.3s2.9,1.2,2.9,2.3c0,0.2-0.2,0.4-0.4,0.4
		c-0.3,0-0.4-0.2-0.4-0.4c0-0.7-0.6-1.5-2-1.5c-1.3,0-2,0.8-2,1.5c0,0.9,0.8,1.2,2.1,1.5s2.9,0.7,2.9,2.5
		C209.6,44.9,208.5,46.1,206.5,46.1z"/>
	<path d="M220.1,37.7c0,0.2-0.2,0.4-0.4,0.4h-2.9v7.6c0,0.2-0.2,0.4-0.4,0.4c-0.3,0-0.4-0.2-0.4-0.4v-7.6h-3c-0.3,0-0.4-0.2-0.4-0.4
		s0.2-0.4,0.4-0.4h6.7C219.9,37.3,220.1,37.5,220.1,37.7z"/>
	<path d="M241.1,46.1h-5.7c-0.3,0-0.4-0.2-0.4-0.4c0-1.6,1.5-2.6,2.9-3.5c1.2-0.8,2.4-1.5,2.4-2.6c0-0.7-0.6-1.5-2-1.5s-2,1-2,1.7
		c0,0.2-0.2,0.4-0.4,0.4c-0.3,0-0.4-0.2-0.4-0.4c0-0.6,0.3-1.2,0.7-1.6c0.4-0.4,1.1-0.8,2.2-0.8c1.9,0,2.9,1.2,2.9,2.3
		c0,1.5-1.4,2.4-2.8,3.2c-1.2,0.7-2.2,1.4-2.5,2.5h5.2c0.2,0,0.4,0.2,0.4,0.4C241.5,45.9,241.3,46.1,241.1,46.1z"/>
	<path d="M250.2,46.1c-2.7,0-5-2-5-4.4s2.2-4.4,5-4.4s5,2,5,4.4C255.1,44.1,252.9,46.1,250.2,46.1z M250.2,38.1
		c-2.2,0-4.1,1.6-4.1,3.6s1.8,3.6,4.1,3.6c2.2,0,4.1-1.6,4.1-3.6C254.2,39.7,252.4,38.1,250.2,38.1z"/>
	<path d="M259.2,46.1c-0.3,0-0.4-0.2-0.4-0.4v-8c0-0.2,0.2-0.4,0.4-0.4c0.3,0,0.4,0.2,0.4,0.4v8C259.7,45.9,259.5,46.1,259.2,46.1z"
		/>
	<path d="M269.3,43.6c0,1.4-1.3,2.5-3,2.5s-3-1.1-3-2.5c0-0.9,0.5-1.7,1.4-2.2c-0.7-0.4-1.1-1.1-1.1-1.8c0-1.3,1.2-2.3,2.7-2.3
		c1.5,0,2.7,1,2.7,2.3c0,0.8-0.4,1.4-1.1,1.8C268.8,41.9,269.3,42.7,269.3,43.6z M268.4,43.6c0-1-0.9-1.7-2.1-1.7s-2.1,0.7-2.1,1.7
		s0.9,1.7,2.1,1.7S268.4,44.6,268.4,43.6z M266.3,41.1c1,0,1.8-0.6,1.8-1.5s-0.8-1.5-1.8-1.5s-1.8,0.6-1.8,1.5
		C264.5,40.4,265.3,41.1,266.3,41.1z"/>
</g>
<path class="st0" d="M115.3,49.7c0.3,1.7,0.4,3.5,0.6,5.3c2.1-1.4,4-2.7,6-3.9c4.8-2.8,7.2-6.9,7-12.4c-0.2-4.3-1.6-4.9-5.1-3.7
	c-0.3,0.1-0.5,0.2-0.8,0.3C118.6,37.8,113.9,42.8,115.3,49.7z M116.7,53.1c-0.1,0-0.2,0-0.3,0c-0.1-1.2-0.3-2.3-0.3-3.5
	c0-0.3,0.4-0.8,0.7-1c0.6-0.4,1.4-0.6,2.4-1.1C118.2,49.6,117.5,51.4,116.7,53.1z M116,47.8c-0.1-0.9-0.1-1.7-0.2-2.5
	c-0.1-1.3,0.7-2.1,1.8-2.4c1.6-0.4,3.2-0.8,5-1.3C121.5,44.9,119.3,46.8,116,47.8z M117.9,52.5c0.7-1.6,1.3-3,2-4.6
	C120.6,50.4,120.2,51.3,117.9,52.5z M124.3,48.5c-1,0.7-2,1.3-3.2,2c-1.1-3.6,0.5-6.1,2.3-8.5c0.2,0,0.3,0,0.4,0
	c0.3,1.8,0.7,3.5,1,5.3C125,47.6,124.7,48.2,124.3,48.5z M127.3,36.2c1.6,3,0.8,8.1-1.6,10.4c-0.4-1.9-0.9-3.7-1.3-5.6
	c-0.1-0.3,0.1-0.8,0.3-1C125.6,38.7,126.4,37.5,127.3,36.2z M126.6,35.4c-0.7,3.8-5,6.2-9.7,6.6C119.7,38.7,122.1,35.5,126.6,35.4z"
	/>
<path class="st0" d="M333.4,35.3c-0.2-0.1-0.5-0.2-0.8-0.3c-3.5-1.2-5-0.6-5.1,3.7c-0.2,5.5,2.2,9.6,7,12.4c2,1.2,3.9,2.5,6,3.9
	c0.2-1.8,0.3-3.6,0.6-5.3C342.5,42.8,337.9,37.8,333.4,35.3z M337.3,47.5c1,0.4,1.7,0.7,2.4,1.1c0.3,0.2,0.7,0.7,0.7,1
	c0,1.2-0.2,2.3-0.3,3.5c-0.1,0-0.2,0-0.3,0C339,51.4,338.2,49.6,337.3,47.5z M333.7,41.6c1.9,0.5,3.5,0.9,5,1.3
	c1.2,0.3,1.9,1.1,1.8,2.4c0,0.8-0.1,1.6-0.2,2.5C337.2,46.8,335,44.9,333.7,41.6z M336.5,47.9c0.7,1.6,1.3,3,2,4.6
	C336.2,51.3,335.8,50.4,336.5,47.9z M331.5,47.2c0.3-1.8,0.6-3.5,1-5.3c0.1,0,0.3,0,0.4,0c1.8,2.5,3.4,5,2.3,8.5
	c-1.1-0.7-2.2-1.3-3.2-2C331.8,48.2,331.4,47.6,331.5,47.2z M331.7,40c0.2,0.3,0.3,0.7,0.3,1c-0.4,1.8-0.8,3.6-1.3,5.6
	c-2.5-2.3-3.3-7.4-1.6-10.4C330,37.5,330.9,38.7,331.7,40z M339.5,42c-4.7-0.3-8.9-2.8-9.7-6.6C334.4,35.5,336.8,38.7,339.5,42z"/>
<path class="st0" d="M231.8,224.1c-18.3,0-33.2-14.9-33.2-33.2s14.9-33.2,33.2-33.2s33.2,14.9,33.2,33.2
	C264.9,209.2,250.1,224,231.8,224.1z M231.8,159.6c-17.3,0-31.4,14-31.4,31.4s14,31.4,31.4,31.4s31.4-14,31.4-31.4
	S249.1,159.6,231.8,159.6z"/>
<path class="st2" d="M221.6,185.2c-1,0.6-1.6,2-1.1,3c0.1,0.1,0,0.3-0.1,0.4c-0.1,0.1-0.2,0.1-0.2,0c-0.1,0-0.1-0.1-0.2-0.1
	c-0.3-0.6-0.3-1.3,0-2.1c0.2-0.7,0.8-1.3,1.3-1.6s0.9-0.8,1.1-1.4c0.2-0.6,0.2-1.2,0-1.6c-0.1-0.1,0-0.3,0.1-0.4
	c0.1-0.1,0.3,0,0.4,0.1c0.3,0.6,0.3,1.3,0.1,2.1C222.7,184.3,222.2,184.9,221.6,185.2L221.6,185.2z M225.7,185.8l-0.5,1.5
	c-0.8,2.2-3.3,3.4-5.5,2.6c-2.2-0.8-3.4-3.3-2.6-5.6l0.5-1.5c0.8-2.2,3.3-3.4,5.5-2.6C225.4,181,226.6,183.5,225.7,185.8
	L225.7,185.8z M225.2,185.5c0.7-1.9-0.3-4.1-2.2-4.9l0,0c-1.9-0.7-4.1,0.3-4.8,2.2l-0.5,1.5c-0.7,1.9,0.3,4.1,2.2,4.9
	s4.1-0.3,4.8-2.2L225.2,185.5z"/>
<g class="st3">
	<path class="st4" d="M248.4,211h-33.1c-0.2,0-0.4-0.1-0.5-0.4c-0.1-0.1-0.1-0.5,0.1-0.6l29.5-39.5h-27c-0.4,0-0.6-0.3-0.6-0.6
		s0.3-0.6,0.6-0.6h28.1c0.2,0,0.4,0.1,0.5,0.4c0.1,0.1,0.1,0.5-0.1,0.6l-29.5,39.5h31.8c0.3,0,0.6,0.3,0.6,0.6
		C248.9,210.7,248.7,211,248.4,211z"/>
	<path class="st4" d="M248.4,211h-33.1c-0.2,0-0.4-0.1-0.5-0.4c-0.1-0.1-0.1-0.5,0.1-0.6l29.5-39.5h-27c-0.4,0-0.6-0.3-0.6-0.6
		s0.3-0.6,0.6-0.6h28.1c0.2,0,0.4,0.1,0.5,0.4c0.1,0.1,0.1,0.5-0.1,0.6l-29.5,39.5h31.8c0.3,0,0.6,0.3,0.6,0.6
		C248.9,210.7,248.7,211,248.4,211z"/>
</g>
<path class="st0" d="M241.2,199.4c0.3,0,0.6-0.2,0.6-0.5l0,0c0.4-1.1,0.4-2.2,0.1-3.3c2.4,0,4.6-1.1,6.1-2.9
	c0.2-0.2,0.2-0.6,0.1-0.8c-1.4-2.1-3.7-3.5-6.2-3.5c-2.5-0.1-5,1-6.5,2.9c0,0,0,0.1-0.1,0.1c0,0.1-0.1,0.1-0.1,0.1l0,0
	c-0.6,1.9-0.2,3.9,0.9,5.5C237.4,198.5,239.3,199.4,241.2,199.4z M237.5,191.2c1.2-1,2.8-1.6,4.5-1.5c1.9,0.1,3.7,1,4.8,2.5
	c-1.2,1.4-2.9,2.1-4.8,2.1c-0.1,0-0.1,0-0.3,0c-0.1,0-0.1,0-0.1,0c-0.1-0.3-0.3-0.6-0.5-0.8C240.1,192.3,238.9,191.5,237.5,191.2z
	 M237.4,196.1c-0.8-1.1-1.1-2.4-0.9-3.7c1.3,0.1,2.5,0.8,3.3,1.9c0.8,1.1,1.1,2.4,0.9,3.7C239.4,197.9,238.2,197.2,237.4,196.1z"/>
<g>
	<path d="M154.7,28.5l-8.8,4.5c-0.2,0.1-0.4,0.1-0.6,0c-0.2-0.1-0.2-0.3-0.1-0.4l4.1-11.4l-6.8,3.4c-0.3,0.2-0.6,0.1-0.8-0.1
		c-0.1-0.2,0-0.5,0.4-0.7l7.9-4c0.2-0.1,0.4-0.1,0.6,0c0.2,0.1,0.2,0.3,0.2,0.5l-4.1,11.3l7.7-3.9c0.3-0.1,0.6-0.1,0.7,0.1
		C155.1,28.1,155,28.4,154.7,28.5z"/>
	<path d="M162.2,25.4c-0.3,0.1-0.6,0-0.7-0.2l-3.3-8.3c-0.1-0.2,0.1-0.5,0.4-0.6c0.3-0.1,0.6,0,0.7,0.2l3.3,8.3
		C162.7,25,162.5,25.3,162.2,25.4z"/>
	<path d="M179.3,19.6c-0.2,0.1-0.4,0.1-0.5,0l-10.7-5.1l2.3,7.4c0.1,0.2-0.1,0.5-0.5,0.6c-0.3,0.1-0.7,0-0.7-0.2l-2.6-8.6
		c-0.1-0.2,0.1-0.4,0.3-0.5s0.5-0.2,0.7-0.1l10.7,5.1l-2.3-7.5c-0.1-0.2,0.1-0.5,0.5-0.6c0.3-0.1,0.7,0,0.7,0.2l2.6,8.6
		c0.1,0.2,0,0.4-0.3,0.5C179.5,19.5,179.4,19.6,179.3,19.6z"/>
	<path d="M195.6,15.8c-0.1,0.1-0.2,0.2-0.4,0.2s-0.3,0-0.5,0l-6.8-3.1l-0.9,1l0.7,3.2c0,0.2-0.2,0.5-0.5,0.6s-0.6-0.1-0.7-0.3
		l-1.8-8.8c0-0.2,0.2-0.5,0.5-0.6c0.3-0.1,0.6,0.1,0.7,0.3l0.9,4.3l5.5-5.9c0.2-0.2,0.6-0.3,0.9-0.2c0.3,0.1,0.3,0.4,0.1,0.6l-4.6,5
		l6.8,3.1C195.7,15.3,195.8,15.6,195.6,15.8z"/>
	<path d="M211.7,13.8c-0.1,0.1-0.3,0.2-0.4,0.2c-0.2,0-0.3,0-0.5-0.1l-6.5-3.7l-1,0.9l0.4,3.3c0,0.3-0.2,0.5-0.6,0.5
		c-0.3,0-0.6-0.1-0.7-0.4l-1-8.9c0-0.3,0.2-0.5,0.6-0.5c0.3,0,0.6,0.1,0.7,0.4l0.5,4.4l6-5.4c0.2-0.2,0.6-0.2,0.9-0.1
		c0.2,0.1,0.3,0.4,0.1,0.6l-5.1,4.5l6.5,3.7C211.9,13.3,211.9,13.5,211.7,13.8z"/>
	<path d="M224.2,13.3c-3,0.1-5.5-1.7-5.6-3.9l-0.1-5.5c0-0.3,0.3-0.5,0.6-0.5s0.6,0.2,0.6,0.4l0.1,5.5c0,1.7,2,3,4.3,3
		c2.4,0,4.2-1.4,4.2-3.2l-0.1-5.5c0-0.3,0.3-0.5,0.6-0.5s0.6,0.2,0.6,0.4l0.1,5.5C229.6,11.4,227.2,13.3,224.2,13.3z"/>
	<path d="M246.6,7.7c-0.1,1.9-2.4,3.3-5,3.1l-3.5-0.3l-0.2,2.5c0,0.3-0.3,0.4-0.7,0.4s-0.6-0.2-0.6-0.5l0.7-9c0-0.3,0.3-0.4,0.7-0.4
		l4.1,0.3C244.8,4.1,246.8,5.8,246.6,7.7z M245.4,7.6c0.1-1.4-1.4-2.7-3.4-2.8l-3.5-0.3l-0.4,5.1l3.5,0.3
		C243.6,10.1,245.3,9,245.4,7.6z"/>
	<path d="M253.4,14.1c0.5,0.1,0.8,0.4,0.8,0.7c0,0.3-0.4,0.5-0.9,0.5c-0.5-0.1-0.8-0.4-0.7-0.7C252.6,14.2,253,14.1,253.4,14.1z"/>
	<path d="M267.6,17.6c-3.7-0.8-6.2-3.6-5.6-6.3c0.6-2.7,4.1-4.2,7.8-3.4c1.9,0.4,3.6,1.4,4.7,2.7c0.2,0.2,0.1,0.5-0.2,0.6
		c-0.3,0.1-0.7,0-0.8-0.2c-0.9-1.1-2.2-1.9-3.8-2.3c-3-0.7-5.9,0.6-6.4,2.8s1.6,4.5,4.6,5.1c1.6,0.3,3.2,0.2,4.4-0.5
		c0.3-0.1,0.6-0.1,0.9,0.1c0.2,0.2,0.2,0.5-0.1,0.6C271.5,17.8,269.5,18,267.6,17.6z"/>
	<path d="M285.7,22.7c-3.6-1.2-5.8-4.3-4.9-6.9s4.5-3.7,8.1-2.4c3.6,1.2,5.8,4.3,4.9,6.9C292.9,22.9,289.3,24,285.7,22.7z
		 M288.7,14.2c-2.9-1-5.9-0.1-6.6,2s1.1,4.6,4,5.7s5.9,0.1,6.6-2C293.4,17.8,291.6,15.2,288.7,14.2z"/>
	<path d="M309,32.8c-0.3-0.2-0.5-0.5-0.4-0.7l3.3-6.7l-6.2,2.3c-0.2,0.1-0.4,0-0.5,0c-0.2-0.1-0.3-0.2-0.4-0.4l-1.9-6.3l-3.3,6.7
		c-0.1,0.2-0.4,0.3-0.8,0.1c-0.3-0.2-0.5-0.5-0.4-0.7l4-8.1c0.1-0.2,0.3-0.3,0.6-0.2c0.3,0.1,0.5,0.3,0.5,0.5l2.2,7.2l7-2.6
		c0.2-0.1,0.5,0,0.7,0.1c0.2,0.2,0.3,0.4,0.2,0.6l-4,8.1C309.7,32.9,309.3,33,309,32.8z"/>
</g>
</svg>
