<?xml version="1.0" encoding="utf-8"?>
<!-- Generator: Adobe Illustrator 22.0.0, SVG Export Plug-In . SVG Version: 6.00 Build 0)  -->
<svg version="1.1" id="Layer_1" xmlns="http://www.w3.org/2000/svg" xmlns:xlink="http://www.w3.org/1999/xlink" x="0px" y="0px"
	 viewBox="0 0 94.4 94.4" style="enable-background:new 0 0 94.4 94.4;" xml:space="preserve">
<style type="text/css">
	.st0{fill:#CCFFFF;}
	.st1{fill:#CCFFFF;stroke:#CCFFFF;stroke-miterlimit:10;}
	.st2{enable-background:new    ;}
	.st3{fill:none;stroke:#CCFFFF;stroke-miterlimit:10;}
</style>
<path class="st0" d="M46.8,93.3c-25.4,0-46.1-20.7-46.1-46.1S21.4,1.1,46.8,1.1s46.1,20.7,46.1,46.1C92.8,72.6,72.2,93.2,46.8,93.3z
	 M46.8,3.6C22.7,3.6,3.2,23.1,3.2,47.2s19.5,43.6,43.6,43.6s43.6-19.5,43.6-43.6C90.4,23.1,70.8,3.6,46.8,3.6z"/>
<path class="st1" d="M33.9,40.6c-1.6,1-2.7,3.3-1.9,4.9c0.1,0.2,0,0.5-0.2,0.6c-0.1,0.1-0.3,0.1-0.4,0c-0.1,0-0.2-0.1-0.3-0.2
	c-0.5-1-0.5-2.2,0-3.4c0.4-1.1,1.3-2.1,2.2-2.7c0.8-0.5,1.5-1.3,1.8-2.3c0.4-1,0.4-1.9,0-2.6c-0.1-0.2,0-0.5,0.2-0.6s0.5,0,0.6,0.2
	c0.5,1,0.5,2.2,0.1,3.4C35.7,39.1,34.9,40.1,33.9,40.6L33.9,40.6z M40.8,41.5L39.9,44c-1.3,3.7-5.5,5.6-9.2,4.3s-5.6-5.5-4.3-9.2
	l0.9-2.5c1.3-3.7,5.5-5.6,9.2-4.3C40.3,33.6,42.2,37.8,40.8,41.5L40.8,41.5z M40,41.1c1.2-3.2-0.5-6.8-3.7-8l0,0
	c-3.2-1.2-6.8,0.5-8,3.7l-0.9,2.5c-1.2,3.2,0.5,6.8,3.7,8s6.8-0.5,8-3.7L40,41.1z"/>
<g class="st2">
	<path class="st3" d="M69.8,75.1h-46c-0.3,0-0.6-0.2-0.7-0.5c-0.2-0.2-0.1-0.7,0.1-0.9l41-54.9H26.7c-0.5,0-0.9-0.4-0.9-0.9
		c0-0.4,0.4-0.8,0.9-0.8h39.1c0.3,0,0.6,0.2,0.7,0.5c0.2,0.2,0.1,0.7-0.1,0.9l-41,54.9h44.2c0.4,0,0.8,0.4,0.8,0.9
		C70.6,74.7,70.2,75.1,69.8,75.1z"/>
	<path class="st0" d="M69.8,75.1h-46c-0.3,0-0.6-0.2-0.7-0.5c-0.2-0.2-0.1-0.7,0.1-0.9l41-54.9H26.7c-0.5,0-0.9-0.4-0.9-0.9
		c0-0.4,0.4-0.8,0.9-0.8h39.1c0.3,0,0.6,0.2,0.7,0.5c0.2,0.2,0.1,0.7-0.1,0.9l-41,54.9h44.2c0.4,0,0.8,0.4,0.8,0.9
		C70.6,74.7,70.2,75.1,69.8,75.1z"/>
</g>
<path class="st0" d="M59.9,59c0.4,0,0.8-0.3,0.9-0.7l0,0c0.5-1.5,0.5-3.1,0.1-4.6c3.3,0,6.4-1.5,8.5-4.1c0.3-0.3,0.3-0.8,0.1-1.1
	c-1.9-2.9-5.1-4.8-8.6-4.9c-3.5-0.2-6.9,1.4-9,4.1c0,0,0,0.1-0.1,0.1c0,0.1-0.1,0.2-0.1,0.2l0,0c-0.8,2.6-0.3,5.4,1.3,7.6
	C54.6,57.7,57.2,59,59.9,59z M54.7,47.5c1.7-1.4,3.9-2.2,6.2-2.1c2.6,0.1,5.1,1.4,6.7,3.5c-1.7,1.9-4.1,2.9-6.7,2.9
	c-0.1,0-0.2,0-0.4,0c-0.1,0-0.2,0-0.2,0c-0.2-0.4-0.4-0.8-0.7-1.1C58.3,49.1,56.6,48,54.7,47.5z M54.5,54.4
	c-1.1-1.5-1.5-3.4-1.2-5.2c1.8,0.2,3.5,1.1,4.6,2.6s1.5,3.4,1.2,5.2C57.4,56.9,55.7,55.9,54.5,54.4z"/>
</svg>
