<?xml version="1.0" encoding="utf-8"?>
<!-- Generator: Adobe Illustrator 22.0.0, SVG Export Plug-In . SVG Version: 6.00 Build 0)  -->
<svg version="1.1" id="Layer_1" xmlns="http://www.w3.org/2000/svg" xmlns:xlink="http://www.w3.org/1999/xlink" x="0px" y="0px"
	 viewBox="0 0 444 226.3" style="enable-background:new 0 0 444 226.3;" xml:space="preserve">
<style type="text/css">
	.st0{fill-rule:evenodd;clip-rule:evenodd;fill:#CC9900;}
	.st1{fill:none;stroke:#CC9900;stroke-width:2;stroke-miterlimit:10;}
	.st2{fill:#CC9900;}
	.st3{fill:#CC9900;stroke:#CC9900;stroke-width:0.75;stroke-miterlimit:10;}
	.st4{enable-background:new    ;}
	.st5{fill:#CC9900;stroke:#CC9900;stroke-miterlimit:10;}
</style>
<path class="st0" d="M274.8,195.1c3.6,1,7.2,2,10.8,2.8c0.6,0.1,2-0.5,2-0.9c1.1-6.3,5.7-9,10.8-11.3c1.5-0.7,3-1.2,4.5-1.8
	c0.2,0.3,0.3,0.5,0.5,0.8c-2.9,4.4-5.9,8.8-8.9,13.2c-0.2-0.2-0.1,0,0,0c2.3-0.2,4.6-0.4,7-0.7c4.2-0.5,4.3-0.5,5-4.6
	c1.2-7.3,6.6-10.9,12.6-14.2c-0.5,3.3-1,6.7-2.5,9.5c-1.5,2.8-4,5.1-6.3,7.8c2.4-0.7,4.6-1.4,6.7-2.1c5.9-1.8,5.9-1.8,6.1-7.6
	c0.2-5.9,5.7-7.9,8.6-12.6c1.2,5.2,1.3,9.5-1.3,13.7c0.2,0.1,0.5,0.2,0.7,0.3c2.5-2,5.1-4,7.6-5.9c-4-7.4,1.8-16.1,7.2-18.7
	c-0.2,2.2-0.3,4.1-0.4,6.1c-0.2,1.9-0.4,3.8-0.6,6.4c1.6-1.7,2.7-2.8,3.8-4c3.1-3.4,4.5-7.2,2.7-11.7c-0.2-0.5-0.4-1-0.6-1.5
	c-1.6-5.2,0.7-10.4,5.9-12.6c0.2,4.1,0.4,8.1,0.7,12.2c1-2.2,2.1-4.4,2.9-6.7c0.5-1.2,1.2-2.8,0.8-3.8c-2.3-7,4.8-15.8,10.7-18.1
	c-0.9,4.3-1.6,8.7-2.8,12.8c-0.6,1.9-2,4.2-3.7,5.1c-3.1,1.6-3.5,4.2-4.4,6.5c2.1-1.5,4.2-3.4,6.6-4.4c2.4-1,5.1-1.1,8.1-1.7
	c-3.3,5.5-8,9.3-12.9,10.3c-2.2,0.5-4.4,0.5-5.3,3.4c-0.6,2.1-2,3.9-3.1,5.8c4.2-3.3,8.4-3.9,13.2-1.9c-2.2,2-4.1,3.8-6.1,5.6
	c-2.6,2.4-5.6,3.7-9.2,3.3c-1.1-0.1-2.6,0-3.3,0.6c-2.5,2.4-4.7,5.2-7,7.8c6-2.1,11.2,1,16.7,2.2c-2.6,1.6-5.2,2.8-7.8,3.9
	c-4.6,2-9.2,1.7-13.6-0.7c-0.5-0.3-1.3-0.5-1.7-0.3c-4,2.4-7.9,4.8-11.8,7.2c0,0.2-0.1,0.5-0.1,0.7c6.9-1.8,12.2,1.6,17.7,5.2
	c-4.1,2.6-8,4.3-12.4,1.7c-2.3-1.4-4.5-3.1-6.8-4.5c-1.1-0.7-2.6-1.4-3.7-1.2c-2.7,0.6-5.3,1.7-8.3,2.8c4.7,2.4,8.9,4.7,13.5,7.1
	c-0.7,0.5-1,0.9-1.4,1c-6,1.7-13.3,2.2-18.2-4.1c-0.7-0.9-1.9-2.1-2.9-2.2c-3.3-0.1-6.6,0.2-10,0.4c4.3,2.2,5.6,6.3,8.3,9.7
	c-5.9,1.5-14.3-1.6-16.4-8c-0.5-1.6-2.7-2.8-4.3-3.8c-1.3-0.9-3.1-1.1-4.5-1.9c-1.1-0.6-2-1.6-3-2.5c0.2-0.3,0.4-0.6,0.7-1
	C273,194.5,273.9,194.8,274.8,195.1z"/>
<path class="st0" d="M166.1,196.8c-3.6,1-7.2,2-10.8,2.8c-0.6,0.1-2-0.5-2-0.9c-1.1-6.3-5.7-9-10.8-11.3c-1.5-0.7-3-1.2-4.5-1.8
	c-0.2,0.3-0.3,0.5-0.5,0.8c2.9,4.4,5.9,8.8,8.9,13.2c0.2-0.2,0.1,0,0,0c-2.3-0.2-4.6-0.4-7-0.7c-4.2-0.5-4.3-0.5-5-4.6
	c-1.2-7.3-6.6-10.9-12.6-14.2c0.5,3.3,1,6.7,2.5,9.5c1.5,2.8,4,5.1,6.3,7.8c-2.4-0.7-4.6-1.4-6.7-2.1c-5.9-1.8-5.9-1.8-6.1-7.6
	c-0.2-5.9-5.7-7.9-8.6-12.6c-1.2,5.2-1.3,9.5,1.3,13.7c-0.2,0.1-0.5,0.2-0.7,0.3c-2.5-2-5.1-4-7.6-5.9c4-7.4-1.8-16.1-7.2-18.7
	c0.2,2.2,0.3,4.1,0.4,6.1c0.2,1.9,0.4,3.8,0.6,6.4c-1.6-1.7-2.7-2.8-3.8-4c-3.1-3.4-4.5-7.2-2.7-11.7c0.2-0.5,0.4-1,0.6-1.5
	c1.6-5.2-0.7-10.4-5.9-12.6c-0.2,4.1-0.4,8.1-0.7,12.2c-1-2.2-2.1-4.4-2.9-6.7c-0.5-1.2-1.2-2.8-0.8-3.8c2.3-7-4.8-15.8-10.7-18.1
	c0.9,4.3,1.6,8.7,2.8,12.8c0.6,1.9,2,4.2,3.7,5.1c3.1,1.6,3.5,4.2,4.4,6.5c-2.1-1.5-4.2-3.4-6.6-4.4c-2.4-1-5.1-1.1-8.1-1.7
	c3.3,5.5,8,9.3,12.9,10.3c2.2,0.5,4.4,0.5,5.3,3.4c0.6,2.1,2,3.9,3.1,5.8c-4.2-3.3-8.4-3.9-13.2-1.9c2.2,2,4.1,3.8,6.1,5.6
	c2.6,2.4,5.6,3.7,9.2,3.3c1.1-0.1,2.6,0,3.3,0.6c2.5,2.4,4.7,5.2,7,7.8c-6-2.1-11.2,1-16.7,2.2c2.6,1.6,5.2,2.8,7.8,3.9
	c4.6,2,9.2,1.7,13.6-0.7c0.5-0.3,1.3-0.5,1.7-0.3c4,2.4,7.9,4.8,11.8,7.2c0,0.2,0.1,0.5,0.1,0.7c-6.9-1.8-12.2,1.6-17.7,5.2
	c4.1,2.6,8,4.3,12.4,1.7c2.3-1.4,4.5-3.1,6.8-4.5c1.1-0.7,2.6-1.4,3.7-1.2c2.7,0.6,5.3,1.7,8.3,2.8c-4.7,2.4-8.9,4.7-13.5,7.1
	c0.7,0.5,1,0.9,1.4,1c6,1.7,13.3,2.2,18.2-4.1c0.7-0.9,1.9-2.1,2.9-2.2c3.3-0.1,6.6,0.2,10,0.4c-4.3,2.2-5.6,6.3-8.3,9.7
	c5.9,1.5,14.3-1.6,16.4-8c0.5-1.6,2.7-2.8,4.3-3.8c1.3-0.9,3.1-1.1,4.5-1.9c1.1-0.6,2-1.6,3-2.5c-0.2-0.3-0.4-0.6-0.7-1
	C168,196.2,167.1,196.6,166.1,196.8z"/>
<g>
	<path class="st1" d="M42.2,110.8H9.6c-1.5,0-3-0.9-3.7-2.2c-0.7-1.4-0.6-3.1,0.4-4.3l26.4-34.6h-21c-2.2,0-4.1-1.8-4.1-4.1
		c0-2.2,1.8-4.1,4.1-4.1h29.3c1.5,0,3,0.8,3.7,2.2c0.7,1.4,0.6,3.1-0.4,4.3l-26.4,34.6h24.3c2.2,0,4.1,1.8,4.1,4.1
		S44.4,110.8,42.2,110.8z"/>
	<path class="st1" d="M83.7,110.8c-2.2,0-4.1-1.8-4.1-4.1V65.6c0-2.2,1.8-4.1,4.1-4.1s4.1,1.8,4.1,4.1v41.2
		C87.9,109,86,110.8,83.7,110.8z"/>
	<path class="st1" d="M158.5,110.8c-1.3,0-2.5-0.6-3.2-1.6l-25.2-31.9v29.4c0,2.2-1.8,4.1-4.1,4.1c-2.2,0-4.1-1.8-4.1-4.1V65.6
		c0-1.8,1.1-3.3,2.7-3.9c1.7-0.6,3.5-0.1,4.6,1.3L154.4,95V65.6c0-2.3,1.8-4.1,4.1-4.1c2.2,0,4.1,1.8,4.1,4.1v41.2
		c0,1.7-1.1,3.2-2.7,3.8C159.4,110.8,158.9,110.8,158.5,110.8z"/>
	<path class="st1" d="M229.6,104.3c1.3,1.9,0.8,4.4-1,5.8c-1.8,1.3-4.4,0.8-5.7-1l-12.7-17.9l-6.3,7.6v7.9c0,2.3-1.8,4.1-4.1,4.1
		c-2.2,0-4.1-1.8-4.1-4.1V65.5c0-2.2,1.8-4.1,4.1-4.1c2.3,0,4.1,1.8,4.1,4.1V86l19.3-23c1.4-1.7,4-2,5.7-0.5c1.8,1.4,2,4,0.6,5.8
		l-13.8,16.5L229.6,104.3z"/>
	<path class="st1" d="M297.2,104.3c1.3,1.9,0.8,4.4-1,5.8c-1.8,1.3-4.4,0.8-5.7-1l-12.7-17.9l-6.3,7.6v7.9c0,2.3-1.8,4.1-4.1,4.1
		c-2.2,0-4.1-1.8-4.1-4.1V65.5c0-2.2,1.8-4.1,4.1-4.1c2.3,0,4.1,1.8,4.1,4.1V86l19.3-23c1.4-1.7,4-2,5.7-0.5c1.8,1.4,2,4,0.6,5.8
		l-13.8,16.5L297.2,104.3z"/>
	<path class="st1" d="M351.2,110.8c-11.2,0-20.2-9.1-20.2-20.2v-25c0-2.3,1.8-4.1,4.1-4.1s4.1,1.8,4.1,4.1v25c0,6.6,5.4,12,12.1,12
		c6.6,0,12-5.4,12-12v-25c0-2.3,1.8-4.1,4.1-4.1c2.2,0,4.1,1.8,4.1,4.1v25C371.5,101.8,362.4,110.8,351.2,110.8z"/>
	<path class="st1" d="M440.8,79.3c0,9.9-8,17.9-17.9,17.9h-9.6v9.5c0,2.3-1.8,4.1-4.1,4.1c-2.2,0-4.1-1.8-4.1-4.1V65.5
		c0-2.2,1.8-4.1,4.1-4.1H423C432.8,61.4,440.8,69.5,440.8,79.3z M432.7,79.3c0-5.3-4.4-9.6-9.7-9.6h-9.6V89h9.6
		C428.3,89,432.7,84.7,432.7,79.3z"/>
</g>
<g>
	<path class="st2" d="M103.3,140c-3,0-5.4-2.4-5.4-5.4s2.4-5.4,5.4-5.4c1.6,0,3,0.7,4.1,1.8c0.2,0.2,0.2,0.5,0,0.7
		c-0.2,0.2-0.5,0.2-0.7,0c-0.8-1-2-1.5-3.3-1.5c-2.4,0-4.4,2-4.4,4.4c0,2.4,2,4.4,4.4,4.4c1.3,0,2.5-0.5,3.3-1.5
		c0.2-0.2,0.5-0.2,0.7,0c0.2,0.2,0.2,0.5,0,0.7C106.4,139.3,104.9,140,103.3,140z"/>
	<path class="st2" d="M120.4,140c-3,0-5.4-2.4-5.4-5.4s2.4-5.4,5.4-5.4c3,0,5.4,2.4,5.4,5.4S123.4,140,120.4,140z M120.4,130.2
		c-2.4,0-4.4,2-4.4,4.4c0,2.4,2,4.4,4.4,4.4c2.4,0,4.4-2,4.4-4.4C124.8,132.1,122.8,130.2,120.4,130.2z"/>
	<path class="st2" d="M140.6,129.7c0,0.3-0.2,0.5-0.5,0.5h-5.9v3.7h4.3c0.3,0,0.5,0.2,0.5,0.5c0,0.3-0.2,0.5-0.5,0.5h-4.3v4.7
		c0,0.3-0.2,0.5-0.5,0.5c-0.3,0-0.5-0.2-0.5-0.5v-9.8c0-0.3,0.2-0.5,0.5-0.5h6.4C140.4,129.2,140.6,129.4,140.6,129.7z"/>
	<path class="st2" d="M155.5,129.7c0,0.3-0.2,0.5-0.5,0.5h-5.9v3.7h4.3c0.3,0,0.5,0.2,0.5,0.5c0,0.3-0.2,0.5-0.5,0.5h-4.3v4.7
		c0,0.3-0.2,0.5-0.5,0.5c-0.3,0-0.5-0.2-0.5-0.5v-9.8c0-0.3,0.2-0.5,0.5-0.5h6.4C155.2,129.2,155.5,129.4,155.5,129.7z"/>
	<path class="st2" d="M170.3,139.5c0,0.3-0.2,0.5-0.5,0.5h-6.4c-0.3,0-0.5-0.2-0.5-0.5v-9.8c0-0.3,0.2-0.5,0.5-0.5h6.4
		c0.3,0,0.5,0.2,0.5,0.5c0,0.3-0.2,0.5-0.5,0.5h-5.9v3.7h4.3c0.3,0,0.5,0.2,0.5,0.5c0,0.3-0.2,0.5-0.5,0.5h-4.3v4.2h5.9
		C170.1,139,170.3,139.2,170.3,139.5z"/>
	<path class="st2" d="M185.2,139.5c0,0.3-0.2,0.5-0.5,0.5h-6.4c-0.3,0-0.5-0.2-0.5-0.5v-9.8c0-0.3,0.2-0.5,0.5-0.5h6.4
		c0.3,0,0.5,0.2,0.5,0.5c0,0.3-0.2,0.5-0.5,0.5h-5.9v3.7h4.3c0.3,0,0.5,0.2,0.5,0.5c0,0.3-0.2,0.5-0.5,0.5h-4.3v4.2h5.9
		C184.9,139,185.2,139.2,185.2,139.5z"/>
	<path class="st2" d="M192.9,139c0.4,0,0.7,0.3,0.7,0.6c0,0.4-0.3,0.6-0.7,0.6c-0.4,0-0.7-0.3-0.7-0.6
		C192.3,139.2,192.6,139,192.9,139z"/>
	<path class="st2" d="M209.3,129.7c0,0.3-0.2,0.5-0.5,0.5h-3.2v9.3c0,0.3-0.2,0.5-0.5,0.5c-0.3,0-0.5-0.2-0.5-0.5v-9.3h-3.2
		c-0.3,0-0.5-0.2-0.5-0.5c0-0.3,0.2-0.5,0.5-0.5h7.3C209.1,129.2,209.3,129.4,209.3,129.7z"/>
	<path class="st2" d="M224.1,139.5c0,0.3-0.2,0.5-0.5,0.5h-6.4c-0.3,0-0.5-0.2-0.5-0.5v-9.8c0-0.3,0.2-0.5,0.5-0.5h6.4
		c0.3,0,0.5,0.2,0.5,0.5c0,0.3-0.2,0.5-0.5,0.5h-5.9v3.7h4.3c0.3,0,0.5,0.2,0.5,0.5c0,0.3-0.2,0.5-0.5,0.5h-4.3v4.2h5.9
		C223.9,139,224.1,139.2,224.1,139.5z"/>
	<path class="st2" d="M240.9,139.9c-0.1,0-0.1,0-0.2,0c-0.2,0-0.4-0.1-0.4-0.3l-1.1-2.6h-5.4l-1.1,2.6c-0.1,0.2-0.4,0.4-0.6,0.2
		c-0.2-0.1-0.4-0.4-0.3-0.6l4.3-9.8c0.1-0.2,0.3-0.3,0.5-0.3c0.2,0,0.4,0.1,0.4,0.3l4.3,9.8C241.3,139.5,241.1,139.8,240.9,139.9z
		 M238.7,136.1l-2.3-5.2l-2.3,5.2H238.7z"/>
	<path class="st2" d="M248.9,139c0.4,0,0.7,0.3,0.7,0.6c0,0.4-0.3,0.6-0.7,0.6c-0.4,0-0.7-0.3-0.7-0.6
		C248.3,139.2,248.6,139,248.9,139z"/>
	<path class="st2" d="M265.2,136.9c0,1.7-1.4,3-3,3h-4.6c-0.3,0-0.5-0.2-0.5-0.5v-9.8c0-0.3,0.2-0.5,0.5-0.5h4.1
		c1.6,0,2.8,1.3,2.8,2.8c0,0.9-0.4,1.6-1,2.2C264.5,134.7,265.2,135.7,265.2,136.9z M261.7,130.2h-3.6v3.7h3.6c1,0,1.8-0.8,1.8-1.9
		C263.5,131,262.7,130.2,261.7,130.2z M264.2,136.9c0-1.1-0.9-2.1-2.1-2.1h-4.1v4.2h4.1C263.3,139,264.2,138.1,264.2,136.9z"/>
	<path class="st2" d="M281.9,139.9c-0.1,0-0.1,0-0.2,0c-0.2,0-0.4-0.1-0.4-0.3l-1.1-2.6h-5.4l-1.1,2.6c-0.1,0.2-0.4,0.4-0.6,0.2
		c-0.2-0.1-0.4-0.4-0.3-0.6l4.3-9.8c0.1-0.2,0.3-0.3,0.5-0.3c0.2,0,0.4,0.1,0.4,0.3l4.3,9.8C282.3,139.5,282.2,139.8,281.9,139.9z
		 M279.7,136.1l-2.3-5.2l-2.3,5.2H279.7z"/>
	<path class="st2" d="M297,139.8c-0.1,0.1-0.2,0.1-0.3,0.1c-0.1,0-0.3,0-0.4-0.1l-4.8-4.8l-0.8,0.8v3.6c0,0.3-0.2,0.5-0.5,0.5
		c-0.3,0-0.5-0.2-0.5-0.5v-9.8c0-0.3,0.2-0.5,0.5-0.5c0.3,0,0.5,0.2,0.5,0.5v4.8l5.2-5.2c0.2-0.2,0.5-0.2,0.7,0
		c0.2,0.2,0.2,0.5,0,0.7l-4.3,4.3l4.8,4.8C297.2,139.3,297.2,139.6,297,139.8z"/>
	<path class="st2" d="M312,139.5c0,0.3-0.2,0.5-0.5,0.5h-6.4c-0.3,0-0.5-0.2-0.5-0.5v-9.8c0-0.3,0.2-0.5,0.5-0.5h6.4
		c0.3,0,0.5,0.2,0.5,0.5c0,0.3-0.2,0.5-0.5,0.5h-5.9v3.7h4.3c0.3,0,0.5,0.2,0.5,0.5c0,0.3-0.2,0.5-0.5,0.5h-4.3v4.2h5.9
		C311.8,139,312,139.2,312,139.5z"/>
	<path class="st2" d="M326.7,139.1c0.2,0.2,0.2,0.5,0,0.7c-0.1,0.1-0.2,0.1-0.3,0.1c-0.1,0-0.3,0-0.4-0.2l-3-3.1h-2.6v2.8
		c0,0.3-0.2,0.5-0.5,0.5c-0.3,0-0.5-0.2-0.5-0.5v-9.8c0-0.3,0.2-0.5,0.5-0.5h3.3c2.1,0,3.8,1.7,3.8,3.8c0,1.7-1.2,3.2-2.7,3.6
		L326.7,139.1z M320.4,135.8h2.8c1.5,0,2.8-1.3,2.8-2.8c0-1.5-1.3-2.8-2.8-2.8h-2.8V135.8z"/>
	<path class="st2" d="M342.1,130l-3.3,4.8v4.7c0,0.3-0.2,0.5-0.5,0.5c-0.3,0-0.5-0.2-0.5-0.5v-4.7l-3.3-4.8
		c-0.2-0.2-0.1-0.5,0.1-0.7c0.2-0.2,0.5-0.1,0.7,0.1l2.9,4.3l3-4.3c0.2-0.2,0.5-0.3,0.7-0.1C342.1,129.4,342.2,129.7,342.1,130z"/>
</g>
<g>
	<path class="st2" d="M189.7,43.4c0,0.2-0.2,0.4-0.4,0.4h-5.9c-0.3,0-0.4-0.2-0.4-0.4v-8c0-0.2,0.2-0.4,0.4-0.4h5.9
		c0.2,0,0.4,0.2,0.4,0.4c0,0.2-0.2,0.4-0.4,0.4h-5.4v3h3.9c0.2,0,0.4,0.2,0.4,0.4c0,0.2-0.2,0.4-0.4,0.4h-3.9V43h5.4
		C189.5,43,189.7,43.2,189.7,43.4z"/>
	<path class="st2" d="M196.5,43.8c-2,0-3.1-1.2-3.1-2.5c0-0.2,0.2-0.4,0.4-0.4c0.2,0,0.4,0.2,0.4,0.4c0,0.8,0.7,1.7,2.2,1.7
		c1.5,0,2.2-0.9,2.2-1.7c0-1.1-0.9-1.4-2.3-1.7c-1.2-0.3-2.8-0.7-2.8-2.3c0-1.1,1-2.3,2.9-2.3c1.9,0,2.9,1.2,2.9,2.3
		c0,0.2-0.2,0.4-0.4,0.4c-0.3,0-0.4-0.2-0.4-0.4c0-0.7-0.6-1.5-2-1.5c-1.3,0-2,0.8-2,1.5c0,0.9,0.8,1.2,2.1,1.5
		c1.3,0.3,2.9,0.7,2.9,2.5C199.6,42.6,198.5,43.8,196.5,43.8z"/>
	<path class="st2" d="M210.1,35.4c0,0.2-0.2,0.4-0.4,0.4h-2.9v7.6c0,0.2-0.2,0.4-0.4,0.4c-0.3,0-0.4-0.2-0.4-0.4v-7.6H203
		c-0.3,0-0.4-0.2-0.4-0.4c0-0.2,0.2-0.4,0.4-0.4h6.7C209.9,35,210.1,35.2,210.1,35.4z"/>
	<path class="st2" d="M231.1,43.8h-5.7c-0.3,0-0.4-0.2-0.4-0.4c0-1.6,1.5-2.6,2.9-3.5c1.2-0.8,2.4-1.5,2.4-2.6c0-0.7-0.6-1.5-2-1.5
		c-1.4,0-2,1-2,1.7c0,0.2-0.2,0.4-0.4,0.4c-0.3,0-0.4-0.2-0.4-0.4c0-0.6,0.3-1.2,0.7-1.6c0.4-0.4,1.1-0.8,2.2-0.8
		c1.9,0,2.9,1.2,2.9,2.3c0,1.5-1.4,2.4-2.8,3.2c-1.2,0.7-2.2,1.4-2.5,2.5h5.2c0.2,0,0.4,0.2,0.4,0.4
		C231.5,43.6,231.3,43.8,231.1,43.8z"/>
	<path class="st2" d="M240.2,43.8c-2.7,0-5-2-5-4.4c0-2.4,2.2-4.4,5-4.4s5,2,5,4.4C245.1,41.8,242.9,43.8,240.2,43.8z M240.2,35.8
		c-2.2,0-4.1,1.6-4.1,3.6c0,2,1.8,3.6,4.1,3.6c2.2,0,4.1-1.6,4.1-3.6C244.2,37.4,242.4,35.8,240.2,35.8z"/>
	<path class="st2" d="M249.2,43.8c-0.3,0-0.4-0.2-0.4-0.4v-8c0-0.2,0.2-0.4,0.4-0.4c0.3,0,0.4,0.2,0.4,0.4v8
		C249.7,43.6,249.5,43.8,249.2,43.8z"/>
	<path class="st2" d="M259.3,41.3c0,1.4-1.3,2.5-3,2.5c-1.7,0-3-1.1-3-2.5c0-0.9,0.5-1.7,1.4-2.2c-0.7-0.4-1.1-1.1-1.1-1.8
		c0-1.3,1.2-2.3,2.7-2.3c1.5,0,2.7,1,2.7,2.3c0,0.8-0.4,1.4-1.1,1.8C258.8,39.6,259.3,40.4,259.3,41.3z M258.4,41.3
		c0-1-0.9-1.7-2.1-1.7c-1.2,0-2.1,0.7-2.1,1.7c0,1,0.9,1.7,2.1,1.7C257.5,43,258.4,42.3,258.4,41.3z M256.3,38.8
		c1,0,1.8-0.6,1.8-1.5c0-0.9-0.8-1.5-1.8-1.5c-1,0-1.8,0.6-1.8,1.5C254.5,38.1,255.3,38.8,256.3,38.8z"/>
</g>
<path class="st0" d="M105.3,47.4c0.3,1.7,0.4,3.5,0.6,5.3c2.1-1.4,4-2.7,6-3.9c4.8-2.8,7.2-6.9,7-12.4c-0.2-4.3-1.6-4.9-5.1-3.7
	c-0.3,0.1-0.5,0.2-0.8,0.3C108.6,35.5,103.9,40.5,105.3,47.4z M106.7,50.8c-0.1,0-0.2,0-0.3,0c-0.1-1.2-0.3-2.3-0.3-3.5
	c0-0.3,0.4-0.8,0.7-1c0.6-0.4,1.4-0.6,2.4-1.1C108.2,47.3,107.5,49.1,106.7,50.8z M106,45.5c-0.1-0.9-0.1-1.7-0.2-2.5
	c-0.1-1.3,0.7-2.1,1.8-2.4c1.6-0.4,3.2-0.8,5-1.3C111.5,42.6,109.3,44.5,106,45.5z M107.9,50.2c0.7-1.6,1.3-3,2-4.6
	C110.6,48.1,110.2,49,107.9,50.2z M114.3,46.2c-1,0.7-2,1.3-3.2,2c-1.1-3.6,0.5-6.1,2.3-8.5c0.2,0,0.3,0,0.4,0
	c0.3,1.8,0.7,3.5,1,5.3C115,45.3,114.7,45.9,114.3,46.2z M117.3,33.9c1.6,3,0.8,8.1-1.6,10.4c-0.4-1.9-0.9-3.7-1.3-5.6
	c-0.1-0.3,0.1-0.8,0.3-1C115.6,36.4,116.4,35.2,117.3,33.9z M116.6,33.1c-0.7,3.8-5,6.2-9.7,6.6C109.7,36.4,112.1,33.2,116.6,33.1z"
	/>
<path class="st0" d="M323.4,33c-0.2-0.1-0.5-0.2-0.8-0.3c-3.5-1.2-5-0.6-5.1,3.7c-0.2,5.5,2.2,9.6,7,12.4c2,1.2,3.9,2.5,6,3.9
	c0.2-1.8,0.3-3.6,0.6-5.3C332.5,40.5,327.9,35.5,323.4,33z M327.3,45.2c1,0.4,1.7,0.7,2.4,1.1c0.3,0.2,0.7,0.7,0.7,1
	c0,1.2-0.2,2.3-0.3,3.5c-0.1,0-0.2,0-0.3,0C329,49.1,328.2,47.3,327.3,45.2z M323.7,39.3c1.9,0.5,3.5,0.9,5,1.3
	c1.2,0.3,1.9,1.1,1.8,2.4c0,0.8-0.1,1.6-0.2,2.5C327.2,44.5,325,42.6,323.7,39.3z M326.5,45.6c0.7,1.6,1.3,3,2,4.6
	C326.2,49,325.8,48.1,326.5,45.6z M321.5,44.9c0.3-1.8,0.6-3.5,1-5.3c0.1,0,0.3,0,0.4,0c1.8,2.5,3.4,5,2.3,8.5
	c-1.1-0.7-2.2-1.3-3.2-2C321.8,45.9,321.4,45.3,321.5,44.9z M321.7,37.7c0.2,0.3,0.3,0.7,0.3,1c-0.4,1.8-0.8,3.6-1.3,5.6
	c-2.5-2.3-3.3-7.4-1.6-10.4C320,35.2,320.9,36.4,321.7,37.7z M329.5,39.7c-4.7-0.3-8.9-2.8-9.7-6.6
	C324.4,33.2,326.8,36.4,329.5,39.7z"/>
<path class="st2" d="M221.8,221.8c-18.3,0-33.2-14.9-33.2-33.2s14.9-33.2,33.2-33.2s33.2,14.9,33.2,33.2
	C254.9,206.9,240.1,221.7,221.8,221.8z M221.8,157.3c-17.3,0-31.4,14-31.4,31.4s14,31.4,31.4,31.4s31.4-14,31.4-31.4
	C253.2,171.3,239.1,157.3,221.8,157.3z"/>
<path class="st3" d="M211.6,182.9c-1,0.6-1.6,2-1.1,3c0.1,0.1,0,0.3-0.1,0.4c-0.1,0.1-0.2,0.1-0.2,0c-0.1,0-0.1-0.1-0.2-0.1
	c-0.3-0.6-0.3-1.3,0-2.1c0.2-0.7,0.8-1.3,1.3-1.6c0.5-0.3,0.9-0.8,1.1-1.4c0.2-0.6,0.2-1.2,0-1.6c-0.1-0.1,0-0.3,0.1-0.4
	c0.1-0.1,0.3,0,0.4,0.1c0.3,0.6,0.3,1.3,0.1,2.1C212.7,182,212.2,182.6,211.6,182.9L211.6,182.9z M215.7,183.5l-0.5,1.5
	c-0.8,2.2-3.3,3.4-5.5,2.6c-2.2-0.8-3.4-3.3-2.6-5.6l0.5-1.5c0.8-2.2,3.3-3.4,5.5-2.6C215.4,178.7,216.6,181.2,215.7,183.5
	L215.7,183.5z M215.2,183.2c0.7-1.9-0.3-4.1-2.2-4.9l0,0c-1.9-0.7-4.1,0.3-4.8,2.2l-0.5,1.5c-0.7,1.9,0.3,4.1,2.2,4.9
	s4.1-0.3,4.8-2.2L215.2,183.2z"/>
<g class="st4">
	<path class="st5" d="M238.4,208.7h-33.1c-0.2,0-0.4-0.1-0.5-0.4c-0.1-0.1-0.1-0.5,0.1-0.6l29.5-39.5h-27c-0.4,0-0.6-0.3-0.6-0.6
		c0-0.3,0.3-0.6,0.6-0.6h28.1c0.2,0,0.4,0.1,0.5,0.4c0.1,0.1,0.1,0.5-0.1,0.6l-29.5,39.5h31.8c0.3,0,0.6,0.3,0.6,0.6
		C238.9,208.4,238.7,208.7,238.4,208.7z"/>
	<path class="st5" d="M238.4,208.7h-33.1c-0.2,0-0.4-0.1-0.5-0.4c-0.1-0.1-0.1-0.5,0.1-0.6l29.5-39.5h-27c-0.4,0-0.6-0.3-0.6-0.6
		c0-0.3,0.3-0.6,0.6-0.6h28.1c0.2,0,0.4,0.1,0.5,0.4c0.1,0.1,0.1,0.5-0.1,0.6l-29.5,39.5h31.8c0.3,0,0.6,0.3,0.6,0.6
		C238.9,208.4,238.7,208.7,238.4,208.7z"/>
</g>
<path class="st2" d="M231.2,197.1c0.3,0,0.6-0.2,0.6-0.5l0,0c0.4-1.1,0.4-2.2,0.1-3.3c2.4,0,4.6-1.1,6.1-2.9
	c0.2-0.2,0.2-0.6,0.1-0.8c-1.4-2.1-3.7-3.5-6.2-3.5c-2.5-0.1-5,1-6.5,2.9c0,0,0,0.1-0.1,0.1c0,0.1-0.1,0.1-0.1,0.1l0,0
	c-0.6,1.9-0.2,3.9,0.9,5.5C227.4,196.2,229.3,197.1,231.2,197.1z M227.5,188.9c1.2-1,2.8-1.6,4.5-1.5c1.9,0.1,3.7,1,4.8,2.5
	c-1.2,1.4-2.9,2.1-4.8,2.1c-0.1,0-0.1,0-0.3,0c-0.1,0-0.1,0-0.1,0c-0.1-0.3-0.3-0.6-0.5-0.8C230.1,190,228.9,189.2,227.5,188.9z
	 M227.4,193.8c-0.8-1.1-1.1-2.4-0.9-3.7c1.3,0.1,2.5,0.8,3.3,1.9c0.8,1.1,1.1,2.4,0.9,3.7C229.4,195.6,228.2,194.9,227.4,193.8z"/>
<g>
	<path class="st2" d="M144.7,26.2l-8.8,4.5c-0.2,0.1-0.4,0.1-0.6,0c-0.2-0.1-0.2-0.3-0.1-0.4l4.1-11.4l-6.8,3.4
		c-0.3,0.2-0.6,0.1-0.8-0.1c-0.1-0.2,0-0.5,0.4-0.7l7.9-4c0.2-0.1,0.4-0.1,0.6,0c0.2,0.1,0.2,0.3,0.2,0.5l-4.1,11.3l7.7-3.9
		c0.3-0.1,0.6-0.1,0.7,0.1C145.1,25.8,145,26.1,144.7,26.2z"/>
	<path class="st2" d="M152.2,23.1c-0.3,0.1-0.6,0-0.7-0.2l-3.3-8.3c-0.1-0.2,0.1-0.5,0.4-0.6c0.3-0.1,0.6,0,0.7,0.2l3.3,8.3
		C152.7,22.7,152.5,23,152.2,23.1z"/>
	<path class="st2" d="M169.3,17.3c-0.2,0.1-0.4,0.1-0.5,0l-10.7-5.1l2.3,7.4c0.1,0.2-0.1,0.5-0.5,0.6c-0.3,0.1-0.7,0-0.7-0.2
		l-2.6-8.6c-0.1-0.2,0.1-0.4,0.3-0.5c0.2-0.1,0.5-0.2,0.7-0.1l10.7,5.1L166,8.4c-0.1-0.2,0.1-0.5,0.5-0.6c0.3-0.1,0.7,0,0.7,0.2
		l2.6,8.6c0.1,0.2,0,0.4-0.3,0.5C169.5,17.2,169.4,17.3,169.3,17.3z"/>
	<path class="st2" d="M185.6,13.5c-0.1,0.1-0.2,0.2-0.4,0.2c-0.2,0-0.3,0-0.5,0l-6.8-3.1l-0.9,1l0.7,3.2c0,0.2-0.2,0.5-0.5,0.6
		s-0.6-0.1-0.7-0.3l-1.8-8.8c0-0.2,0.2-0.5,0.5-0.6c0.3-0.1,0.6,0.1,0.7,0.3l0.9,4.3l5.5-5.9c0.2-0.2,0.6-0.3,0.9-0.2
		c0.3,0.1,0.3,0.4,0.1,0.6l-4.6,5l6.8,3.1C185.7,13,185.8,13.3,185.6,13.5z"/>
	<path class="st2" d="M201.7,11.5c-0.1,0.1-0.3,0.2-0.4,0.2c-0.2,0-0.3,0-0.5-0.1l-6.5-3.7l-1,0.9l0.4,3.3c0,0.3-0.2,0.5-0.6,0.5
		c-0.3,0-0.6-0.1-0.7-0.4l-1-8.9c0-0.3,0.2-0.5,0.6-0.5c0.3,0,0.6,0.1,0.7,0.4l0.5,4.4l6-5.4c0.2-0.2,0.6-0.2,0.9-0.1
		c0.2,0.1,0.3,0.4,0.1,0.6l-5.1,4.5l6.5,3.7C201.9,11,201.9,11.2,201.7,11.5z"/>
	<path class="st2" d="M214.2,11c-3,0.1-5.5-1.7-5.6-3.9l-0.1-5.5c0-0.3,0.3-0.5,0.6-0.5c0.3,0,0.6,0.2,0.6,0.4l0.1,5.5
		c0,1.7,2,3,4.3,3c2.4,0,4.2-1.4,4.2-3.2l-0.1-5.5c0-0.3,0.3-0.5,0.6-0.5s0.6,0.2,0.6,0.4l0.1,5.5C219.6,9.1,217.2,11,214.2,11z"/>
	<path class="st2" d="M236.6,5.4c-0.1,1.9-2.4,3.3-5,3.1l-3.5-0.3l-0.2,2.5c0,0.3-0.3,0.4-0.7,0.4s-0.6-0.2-0.6-0.5l0.7-9
		c0-0.3,0.3-0.4,0.7-0.4l4.1,0.3C234.8,1.8,236.8,3.5,236.6,5.4z M235.4,5.3c0.1-1.4-1.4-2.7-3.4-2.8l-3.5-0.3l-0.4,5.1l3.5,0.3
		C233.6,7.8,235.3,6.7,235.4,5.3z"/>
	<path class="st2" d="M243.4,11.8c0.5,0.1,0.8,0.4,0.8,0.7c0,0.3-0.4,0.5-0.9,0.5c-0.5-0.1-0.8-0.4-0.7-0.7
		C242.6,11.9,243,11.8,243.4,11.8z"/>
	<path class="st2" d="M257.6,15.3c-3.7-0.8-6.2-3.6-5.6-6.3s4.1-4.2,7.8-3.4c1.9,0.4,3.6,1.4,4.7,2.7c0.2,0.2,0.1,0.5-0.2,0.6
		c-0.3,0.1-0.7,0-0.8-0.2c-0.9-1.1-2.2-1.9-3.8-2.3c-3-0.7-5.9,0.6-6.4,2.8c-0.5,2.2,1.6,4.5,4.6,5.1c1.6,0.3,3.2,0.2,4.4-0.5
		c0.3-0.1,0.6-0.1,0.9,0.1c0.2,0.2,0.2,0.5-0.1,0.6C261.5,15.5,259.5,15.7,257.6,15.3z"/>
	<path class="st2" d="M275.7,20.4c-3.6-1.2-5.8-4.3-4.9-6.9s4.5-3.7,8.1-2.4c3.6,1.2,5.8,4.3,4.9,6.9
		C282.9,20.6,279.3,21.7,275.7,20.4z M278.7,11.9c-2.9-1-5.9-0.1-6.6,2c-0.7,2.1,1.1,4.6,4,5.7s5.9,0.1,6.6-2
		C283.4,15.5,281.6,12.9,278.7,11.9z"/>
	<path class="st2" d="M299,30.5c-0.3-0.2-0.5-0.5-0.4-0.7l3.3-6.7l-6.2,2.3c-0.2,0.1-0.4,0-0.5,0c-0.2-0.1-0.3-0.2-0.4-0.4l-1.9-6.3
		l-3.3,6.7c-0.1,0.2-0.4,0.3-0.8,0.1c-0.3-0.2-0.5-0.5-0.4-0.7l4-8.1c0.1-0.2,0.3-0.3,0.6-0.2c0.3,0.1,0.5,0.3,0.5,0.5l2.2,7.2
		l7-2.6c0.2-0.1,0.5,0,0.7,0.1c0.2,0.2,0.3,0.4,0.2,0.6l-4,8.1C299.7,30.6,299.3,30.7,299,30.5z"/>
</g>
</svg>
