<?xml version="1.0" encoding="utf-8"?>
<!-- Generator: Adobe Illustrator 22.0.0, SVG Export Plug-In . SVG Version: 6.00 Build 0)  -->
<svg version="1.1" id="Layer_1" xmlns="http://www.w3.org/2000/svg" xmlns:xlink="http://www.w3.org/1999/xlink" x="0px" y="0px"
	 viewBox="0 0 254.5 45.5" style="enable-background:new 0 0 254.5 45.5;" xml:space="preserve">
<style type="text/css">
	.st0{fill:none;stroke:#000000;stroke-miterlimit:10;}
</style>
<title>Asset 1</title>
<g>
	<path class="st0" d="M22,29.8H3c-0.9,0-1.7-0.5-2.1-1.3c-0.4-0.8-0.3-1.8,0.2-2.5L16.5,5.8H4.3C3,5.8,1.9,4.7,1.9,3.4
		S3,1.1,4.3,1.1h17.1c0.9,0,1.7,0.5,2.1,1.3c0.4,0.8,0.3,1.8-0.2,2.5L7.9,25H22c1.3,0,2.4,1.1,2.4,2.4S23.3,29.8,22,29.8z"/>
	<path class="st0" d="M46.2,29.8c-1.3,0-2.4-1.1-2.4-2.4v-24c0-1.3,1.1-2.4,2.4-2.4s2.4,1.1,2.4,2.4v24
		C48.6,28.7,47.5,29.8,46.2,29.8z"/>
	<path class="st0" d="M89.8,29.8c-0.7,0-1.4-0.3-1.9-0.9L73.2,10.3v17.1c0,1.3-1.1,2.4-2.4,2.4s-2.4-1.1-2.4-2.4v-24
		c0-1,0.7-1.9,1.6-2.3c1-0.4,2,0,2.7,0.8l14.7,18.6V3.4c0-1.4,1.1-2.4,2.4-2.4s2.4,1.1,2.4,2.4v24c0,1-0.7,1.9-1.6,2.2
		C90.3,29.7,90,29.8,89.8,29.8z"/>
	<path class="st0" d="M131.1,26c0.7,1.1,0.5,2.6-0.6,3.4c-1.1,0.7-2.6,0.5-3.3-0.6l-7.4-10.4l-3.7,4.4v4.6c0,1.3-1.1,2.4-2.4,2.4
		c-1.3,0-2.4-1.1-2.4-2.4v-24c0-1.3,1.1-2.4,2.4-2.4c1.4,0,2.4,1.1,2.4,2.4v11.9l11.2-13.4c0.8-1,2.3-1.1,3.3-0.3
		c1,0.8,1.1,2.3,0.3,3.4l-8,9.6L131.1,26z"/>
	<path class="st0" d="M170.6,26c0.7,1.1,0.5,2.6-0.6,3.4c-1.1,0.7-2.6,0.5-3.3-0.6l-7.4-10.4l-3.7,4.4v4.6c0,1.3-1.1,2.4-2.4,2.4
		c-1.3,0-2.4-1.1-2.4-2.4v-24c0-1.3,1.1-2.4,2.4-2.4c1.4,0,2.4,1.1,2.4,2.4v11.9l11.2-13.4c0.8-1,2.3-1.1,3.3-0.3
		c1,0.8,1.1,2.3,0.3,3.4l-8,9.6L170.6,26z"/>
	<path class="st0" d="M202,29.8c-6.5,0-11.8-5.3-11.8-11.8V3.4c0-1.4,1.1-2.4,2.4-2.4s2.4,1.1,2.4,2.4V18c0,3.8,3.2,7,7,7
		c3.8,0,7-3.2,7-7V3.4c0-1.4,1.1-2.4,2.4-2.4c1.3,0,2.4,1.1,2.4,2.4V18C213.8,24.5,208.5,29.8,202,29.8z"/>
	<path class="st0" d="M254.2,11.4c0,5.8-4.7,10.4-10.4,10.4h-5.6v5.5c0,1.3-1.1,2.4-2.4,2.4s-2.4-1.1-2.4-2.4v-24
		c0-1.3,1.1-2.4,2.4-2.4h8C249.5,1,254.2,5.7,254.2,11.4z M249.4,11.4c0-3.1-2.5-5.6-5.6-5.6h-5.6v11.3h5.6
		C246.9,17.1,249.4,14.6,249.4,11.4z"/>
</g>
<g>
	<path d="M41.9,44.7c-2.3,0-4.2-1.9-4.2-4.2s1.9-4.2,4.2-4.2c1.2,0,2.4,0.5,3.2,1.4c0.1,0.2,0.1,0.4,0,0.5c-0.2,0.1-0.4,0.1-0.5,0
		c-0.7-0.8-1.6-1.2-2.6-1.2c-1.9,0-3.5,1.6-3.5,3.5c0,1.9,1.6,3.5,3.5,3.5c1,0,2-0.4,2.6-1.2c0.1-0.2,0.4-0.2,0.5,0
		c0.2,0.1,0.2,0.4,0,0.5C44.2,44.1,43.1,44.7,41.9,44.7z"/>
	<path d="M55.3,44.7c-2.3,0-4.2-1.9-4.2-4.2s1.9-4.2,4.2-4.2c2.3,0,4.2,1.9,4.2,4.2S57.6,44.7,55.3,44.7z M55.3,37
		c-1.9,0-3.5,1.6-3.5,3.5c0,1.9,1.5,3.5,3.5,3.5s3.5-1.6,3.5-3.5C58.7,38.5,57.2,37,55.3,37z"/>
	<path d="M71.2,36.6c0,0.2-0.2,0.4-0.4,0.4h-4.6v2.9h3.3c0.2,0,0.4,0.2,0.4,0.4c0,0.2-0.2,0.4-0.4,0.4h-3.3v3.7
		c0,0.2-0.2,0.4-0.4,0.4c-0.2,0-0.4-0.2-0.4-0.4v-7.7c0-0.2,0.2-0.4,0.4-0.4h5C71,36.2,71.2,36.4,71.2,36.6z"/>
	<path d="M82.8,36.6c0,0.2-0.2,0.4-0.4,0.4h-4.6v2.9h3.3c0.2,0,0.4,0.2,0.4,0.4c0,0.2-0.2,0.4-0.4,0.4h-3.3v3.7
		c0,0.2-0.2,0.4-0.4,0.4c-0.2,0-0.4-0.2-0.4-0.4v-7.7c0-0.2,0.2-0.4,0.4-0.4h5C82.7,36.2,82.8,36.4,82.8,36.6z"/>
	<path d="M94.5,44.3c0,0.2-0.2,0.4-0.4,0.4h-5c-0.2,0-0.4-0.2-0.4-0.4v-7.7c0-0.2,0.2-0.4,0.4-0.4h5c0.2,0,0.4,0.2,0.4,0.4
		c0,0.2-0.2,0.4-0.4,0.4h-4.6v2.9h3.3c0.2,0,0.4,0.2,0.4,0.4c0,0.2-0.2,0.4-0.4,0.4h-3.3v3.3h4.6C94.3,43.9,94.5,44.1,94.5,44.3z"/>
	<path d="M106.2,44.3c0,0.2-0.2,0.4-0.4,0.4h-5c-0.2,0-0.4-0.2-0.4-0.4v-7.7c0-0.2,0.2-0.4,0.4-0.4h5c0.2,0,0.4,0.2,0.4,0.4
		c0,0.2-0.2,0.4-0.4,0.4h-4.6v2.9h3.3c0.2,0,0.4,0.2,0.4,0.4c0,0.2-0.2,0.4-0.4,0.4h-3.3v3.3h4.6C106,43.9,106.2,44.1,106.2,44.3z"
		/>
	<path d="M112.3,43.9c0.3,0,0.5,0.2,0.5,0.5c0,0.3-0.2,0.5-0.5,0.5c-0.3,0-0.5-0.2-0.5-0.5C111.8,44.1,112,43.9,112.3,43.9z"/>
	<path d="M125.2,36.6c0,0.2-0.2,0.4-0.4,0.4h-2.5v7.3c0,0.2-0.2,0.4-0.4,0.4c-0.2,0-0.4-0.2-0.4-0.4V37h-2.5c-0.2,0-0.4-0.2-0.4-0.4
		c0-0.2,0.2-0.4,0.4-0.4h5.7C125,36.2,125.2,36.4,125.2,36.6z"/>
	<path d="M136.9,44.3c0,0.2-0.2,0.4-0.4,0.4h-5c-0.2,0-0.4-0.2-0.4-0.4v-7.7c0-0.2,0.2-0.4,0.4-0.4h5c0.2,0,0.4,0.2,0.4,0.4
		c0,0.2-0.2,0.4-0.4,0.4h-4.6v2.9h3.3c0.2,0,0.4,0.2,0.4,0.4c0,0.2-0.2,0.4-0.4,0.4h-3.3v3.3h4.6C136.7,43.9,136.9,44.1,136.9,44.3z
		"/>
	<path d="M150,44.6c-0.1,0-0.1,0-0.2,0c-0.2,0-0.3-0.1-0.3-0.2l-0.9-2h-4.3l-0.9,2c-0.1,0.2-0.3,0.3-0.5,0.2
		c-0.2-0.1-0.3-0.3-0.2-0.5l3.4-7.7c0.1-0.1,0.2-0.2,0.4-0.2c0.1,0,0.3,0.1,0.3,0.2l3.4,7.7C150.3,44.3,150.2,44.5,150,44.6z
		 M148.3,41.6l-1.8-4.1l-1.8,4.1H148.3z"/>
	<path d="M156.4,43.9c0.3,0,0.5,0.2,0.5,0.5c0,0.3-0.2,0.5-0.5,0.5c-0.3,0-0.5-0.2-0.5-0.5C155.8,44.1,156.1,43.9,156.4,43.9z"/>
	<path d="M169.1,42.3c0,1.3-1.1,2.4-2.4,2.4h-3.6c-0.2,0-0.4-0.2-0.4-0.4v-7.7c0-0.2,0.2-0.4,0.4-0.4h3.2c1.2,0,2.2,1,2.2,2.2
		c0,0.7-0.3,1.3-0.8,1.7C168.6,40.5,169.1,41.3,169.1,42.3z M166.4,37h-2.8v2.9h2.8c0.8,0,1.5-0.7,1.5-1.5
		C167.8,37.6,167.2,37,166.4,37z M168.4,42.3c0-0.9-0.7-1.6-1.6-1.6h-3.2v3.3h3.2C167.6,43.9,168.4,43.2,168.4,42.3z"/>
	<path d="M182.3,44.6c-0.1,0-0.1,0-0.2,0c-0.2,0-0.3-0.1-0.3-0.2l-0.9-2h-4.3l-0.9,2c-0.1,0.2-0.3,0.3-0.5,0.2
		c-0.2-0.1-0.3-0.3-0.2-0.5l3.4-7.7c0.1-0.1,0.2-0.2,0.4-0.2c0.1,0,0.3,0.1,0.3,0.2l3.4,7.7C182.6,44.3,182.5,44.5,182.3,44.6z
		 M180.6,41.6l-1.8-4.1l-1.8,4.1H180.6z"/>
	<path d="M194.1,44.6c-0.1,0.1-0.2,0.1-0.3,0.1c-0.1,0-0.2,0-0.3-0.1l-3.8-3.8l-0.7,0.7v2.8c0,0.2-0.2,0.4-0.4,0.4s-0.4-0.2-0.4-0.4
		v-7.7c0-0.2,0.2-0.4,0.4-0.4s0.4,0.2,0.4,0.4v3.8l4.1-4.1c0.2-0.1,0.4-0.1,0.6,0c0.1,0.1,0.1,0.4,0,0.5l-3.4,3.4l3.8,3.8
		C194.3,44.2,194.3,44.4,194.1,44.6z"/>
	<path d="M205.9,44.3c0,0.2-0.2,0.4-0.4,0.4h-5c-0.2,0-0.4-0.2-0.4-0.4v-7.7c0-0.2,0.2-0.4,0.4-0.4h5c0.2,0,0.4,0.2,0.4,0.4
		c0,0.2-0.2,0.4-0.4,0.4h-4.6v2.9h3.3c0.2,0,0.4,0.2,0.4,0.4c0,0.2-0.2,0.4-0.4,0.4h-3.3v3.3h4.6C205.8,43.9,205.9,44.1,205.9,44.3z
		"/>
	<path d="M217.5,44c0.1,0.2,0.1,0.4,0,0.5c-0.1,0.1-0.2,0.1-0.3,0.1c-0.1,0-0.2,0-0.3-0.1l-2.4-2.4h-2v2.2c0,0.2-0.2,0.4-0.4,0.4
		c-0.2,0-0.4-0.2-0.4-0.4v-7.7c0-0.2,0.2-0.4,0.4-0.4h2.6c1.6,0,3,1.3,3,3c0,1.4-0.9,2.5-2.2,2.8L217.5,44z M212.6,41.4h2.2
		c1.2,0,2.2-1,2.2-2.2c0-1.2-1-2.2-2.2-2.2h-2.2V41.4z"/>
	<path d="M229.6,36.8l-2.6,3.8v3.7c0,0.2-0.2,0.4-0.4,0.4c-0.2,0-0.4-0.2-0.4-0.4v-3.7l-2.6-3.8c-0.1-0.2-0.1-0.4,0.1-0.5
		c0.2-0.1,0.4-0.1,0.5,0.1l2.3,3.4l2.3-3.4c0.1-0.2,0.4-0.2,0.5-0.1C229.7,36.4,229.7,36.6,229.6,36.8z"/>
</g>
</svg>
