<?xml version="1.0" encoding="utf-8"?>
<!-- Generator: Adobe Illustrator 22.0.0, SVG Export Plug-In . SVG Version: 6.00 Build 0)  -->
<svg version="1.1" id="Layer_1" xmlns="http://www.w3.org/2000/svg" xmlns:xlink="http://www.w3.org/1999/xlink" x="0px" y="0px"
	 viewBox="0 0 108 108" style="enable-background:new 0 0 108 108;" xml:space="preserve">
<style type="text/css">
	.st0{fill:#73B79C;}
	.st1{display:none;fill:#24272A;}
	.st2{stroke:#000000;stroke-miterlimit:10;}
	.st3{enable-background:new    ;}
</style>
<circle class="st0" cx="54" cy="54" r="54"/>
<path class="st1" d="M43.3,55.6H33c-0.6,0-1.1-0.5-1.1-1.1V41.2c0-0.3,0.1-0.6,0.3-0.8c0.2-0.2,0.5-0.3,0.8-0.3l10.3,0.1
	c2.4,0,4.4,2,4.4,4.4c0,1.3-0.6,2.5-1.5,3.3c1.8,1.6,2,4.4,0.4,6.2C45.8,55,44.5,55.6,43.3,55.6L43.3,55.6z M34.1,53.4h9.2
	c1.2,0,2.2-1,2.2-2.2s-1-2.2-2.2-2.2h-9.2V53.4z M34.1,46.7h9.2c1.2,0,2.2-1,2.2-2.2c0-1.2-1-2.2-2.2-2.2l-9.2-0.1V46.7z"/>
<path class="st1" d="M74.5,65.2H64.2c-0.6,0-1.1-0.5-1.1-1.1V50.8c0-0.3,0.1-0.6,0.3-0.8c0.2-0.2,0.5-0.3,0.8-0.3l10.3,0.1
	c2.4,0,4.4,2,4.4,4.4c0,1.3-0.6,2.5-1.5,3.3c1.8,1.6,2,4.4,0.4,6.2C76.9,64.6,75.7,65.2,74.5,65.2L74.5,65.2z M65.3,63h9.2
	c1.2,0,2.2-1,2.2-2.2s-1-2.2-2.2-2.2h-9.2V63z M65.3,56.3h9.2c1.2,0,2.2-1,2.2-2.2c0-1.2-1-2.2-2.2-2.2l-9.2-0.1V56.3z"/>
<path class="st1" d="M69.3,79.6c-6.2,0-12.6-3.1-18.9-6.1l-1.2-0.6c-0.6-0.3-0.9-1.1-0.6-1.7c0.3-0.6,1.1-0.9,1.7-0.6l1.2,0.6
	c10.6,5.1,20.7,10,29.1,0.2c0.5-0.5,1.3-0.6,1.8-0.1c0.5,0.5,0.6,1.3,0.1,1.8C78.4,77.9,73.9,79.6,69.3,79.6z"/>
<path class="st1" d="M32.3,81.2c-4.3,0-6.7-1.6-8-2.9c-1.5-1.5-2.3-3.5-2.3-5.7c0.1-3.7,3.4-7.6,10.8-7.6c2.8,0,5.6,0.5,8.3,1.5
	c0.6,0.3,0.9,1,0.6,1.7s-1,0.9-1.7,0.6c0,0,0,0,0,0c-2.3-0.8-4.8-1.3-7.2-1.3c-5.6,0-8.2,2.6-8.2,5.1c0,1.4,0.6,2.8,1.6,3.9
	c1.7,1.5,3.9,2.3,6.2,2.1c4.5,0,7.2-2.7,10.6-7.7c6.9-11.4,13.3-24,16.5-30.5c0.3-0.6,1.1-0.9,1.7-0.6c0.6,0.3,0.9,1.1,0.6,1.7
	c-3.2,6.6-9.7,19.3-16.7,30.8l0,0.1C41.9,77.1,38.5,81.2,32.3,81.2z"/>
<path class="st1" d="M75,41.3c-6.1,0-12.5-3.1-18.8-6.1c-10.6-5.1-20.7-10-29.1-0.2c-0.5,0.5-1.3,0.6-1.8,0.1s-0.6-1.3-0.1-1.8
	c9.7-11.2,21.1-5.7,32.2-0.4c5.9,2.9,12.1,5.8,17.6,5.8c5.6,0,8.2-2.6,8.2-5.1c0-1.4-0.6-2.8-1.6-3.9c-1.7-1.5-3.9-2.3-6.2-2.1
	c-3.6,0-6.2,1.6-9.4,5.9c-0.4,0.6-1.2,0.7-1.8,0.3c-0.6-0.4-0.7-1.2-0.3-1.8c2.7-3.6,5.9-6.9,11.4-6.9c4.3,0,6.7,1.6,8,2.9
	c1.5,1.5,2.3,3.5,2.3,5.7C85.7,37.4,82.3,41.3,75,41.3z"/>
<path class="st1" d="M54,101.2C27.9,101.2,6.8,80,6.8,54S27.9,6.8,54,6.8c26.1,0,47.2,21.1,47.2,47.2C101.1,80,80,101.1,54,101.2z
	 M54,9.3C29.3,9.3,9.3,29.3,9.3,54c0,24.7,20,44.6,44.6,44.6s44.6-20,44.6-44.6c0,0,0,0,0,0C98.6,29.3,78.6,9.4,54,9.3z"/>
<path d="M53.8,100.3c-25.4,0-46.1-20.7-46.1-46.1S28.4,8.1,53.8,8.1s46.1,20.7,46.1,46.1C99.8,79.6,79.2,100.2,53.8,100.3z
	 M53.8,10.6c-24.1,0-43.6,19.5-43.6,43.6s19.5,43.6,43.6,43.6s43.6-19.5,43.6-43.6C97.4,30.1,77.8,10.6,53.8,10.6z"/>
<path class="st2" d="M40.9,47.6c-1.6,1-2.7,3.3-1.9,4.9c0.1,0.2,0,0.5-0.2,0.6c-0.1,0.1-0.3,0.1-0.4,0c-0.1,0-0.2-0.1-0.3-0.2
	c-0.5-1-0.5-2.2,0-3.4c0.4-1.1,1.3-2.1,2.2-2.7c0.8-0.5,1.5-1.3,1.8-2.3c0.4-1,0.4-1.9,0-2.6c-0.1-0.2,0-0.5,0.2-0.6s0.5,0,0.6,0.2
	c0.5,1,0.5,2.2,0.1,3.4C42.7,46.1,41.9,47.1,40.9,47.6L40.9,47.6z M47.8,48.5L46.9,51c-1.3,3.7-5.5,5.6-9.2,4.3s-5.6-5.5-4.3-9.2
	l0.9-2.5c1.3-3.7,5.5-5.6,9.2-4.3C47.3,40.6,49.2,44.8,47.8,48.5L47.8,48.5z M47,48.1c1.2-3.2-0.5-6.8-3.7-8l0,0
	c-3.2-1.2-6.8,0.5-8,3.7l-0.9,2.5c-1.2,3.2,0.5,6.8,3.7,8c3.2,1.2,6.8-0.5,8-3.7L47,48.1z"/>
<g class="st3">
	<path class="st2" d="M76.8,82.1h-46c-0.3,0-0.6-0.2-0.7-0.5c-0.2-0.2-0.1-0.7,0.1-0.9l41-54.9H33.7c-0.5,0-0.9-0.4-0.9-0.9
		c0-0.4,0.4-0.8,0.9-0.8h39.1c0.3,0,0.6,0.2,0.7,0.5c0.2,0.2,0.1,0.7-0.1,0.9l-41,54.9h44.2c0.4,0,0.8,0.4,0.8,0.9
		C77.6,81.7,77.2,82.1,76.8,82.1z"/>
	<path class="st2" d="M76.8,82.1h-46c-0.3,0-0.6-0.2-0.7-0.5c-0.2-0.2-0.1-0.7,0.1-0.9l41-54.9H33.7c-0.5,0-0.9-0.4-0.9-0.9
		c0-0.4,0.4-0.8,0.9-0.8h39.1c0.3,0,0.6,0.2,0.7,0.5c0.2,0.2,0.1,0.7-0.1,0.9l-41,54.9h44.2c0.4,0,0.8,0.4,0.8,0.9
		C77.6,81.7,77.2,82.1,76.8,82.1z"/>
</g>
<path d="M66.9,66c0.4,0,0.8-0.3,0.9-0.7l0,0c0.5-1.5,0.5-3.1,0.1-4.6c3.3,0,6.4-1.5,8.5-4.1c0.3-0.3,0.3-0.8,0.1-1.1
	c-1.9-2.9-5.1-4.8-8.6-4.9c-3.5-0.2-6.9,1.4-9,4.1c0,0,0,0.1-0.1,0.1c0,0.1-0.1,0.2-0.1,0.2l0,0c-0.8,2.6-0.3,5.4,1.3,7.6
	C61.6,64.7,64.2,66,66.9,66z M61.7,54.5c1.7-1.4,3.9-2.2,6.2-2.1c2.6,0.1,5.1,1.4,6.7,3.5c-1.7,1.9-4.1,2.9-6.7,2.9
	c-0.1,0-0.2,0-0.4,0c-0.1,0-0.2,0-0.2,0c-0.2-0.4-0.4-0.8-0.7-1.1C65.3,56.1,63.6,55,61.7,54.5z M61.5,61.4
	c-1.1-1.5-1.5-3.4-1.2-5.2c1.8,0.2,3.5,1.1,4.6,2.6c1.1,1.5,1.5,3.4,1.2,5.2C64.4,63.9,62.7,62.9,61.5,61.4z"/>
</svg>
