<?xml version="1.0" encoding="utf-8"?>
<!-- Generator: Adobe Illustrator 22.0.0, SVG Export Plug-In . SVG Version: 6.00 Build 0)  -->
<svg version="1.1" id="Layer_1" xmlns="http://www.w3.org/2000/svg" xmlns:xlink="http://www.w3.org/1999/xlink" x="0px" y="0px"
	 viewBox="0 0 51.9 51.9" style="enable-background:new 0 0 51.9 51.9;" xml:space="preserve">
<style type="text/css">
	.st0{fill:#FF9985;}
	.st1{stroke:#000000;stroke-width:0.5;stroke-miterlimit:10;}
	.st2{enable-background:new    ;}
	.st3{stroke:#000000;stroke-miterlimit:10;}
</style>
<circle class="st0" cx="25.9" cy="25.9" r="25.9"/>
<path d="M25.8,48.5C13.2,48.5,3,38.3,3,25.7S13.2,2.9,25.8,2.9s22.8,10.2,22.8,22.8C48.5,38.3,38.4,48.5,25.8,48.5z M25.8,4.2
	c-11.9,0-21.6,9.6-21.6,21.6s9.6,21.6,21.6,21.6s21.6-9.6,21.6-21.6C47.4,13.8,37.7,4.2,25.8,4.2z"/>
<path class="st1" d="M19.4,22.5c-0.8,0.5-1.3,1.6-0.9,2.4c0,0.1,0,0.2-0.1,0.3c0,0-0.1,0-0.2,0c0,0-0.1,0-0.1-0.1
	c-0.2-0.5-0.2-1.1,0-1.7c0.2-0.5,0.6-1,1.1-1.3c0.4-0.2,0.7-0.6,0.9-1.1c0.2-0.5,0.2-0.9,0-1.3c0-0.1,0-0.2,0.1-0.3
	c0.1,0,0.2,0,0.3,0.1c0.2,0.5,0.2,1.1,0,1.7C20.3,21.7,19.9,22.2,19.4,22.5L19.4,22.5z M22.8,22.9l-0.4,1.2
	c-0.6,1.8-2.7,2.8-4.6,2.1c-1.8-0.6-2.8-2.7-2.1-4.6l0.4-1.2c0.6-1.8,2.7-2.8,4.6-2.1C22.6,19,23.5,21.1,22.8,22.9L22.8,22.9z
	 M22.4,22.7c0.6-1.6-0.2-3.4-1.8-4l0,0c-1.6-0.6-3.4,0.2-4,1.8l-0.4,1.2c-0.6,1.6,0.2,3.4,1.8,4s3.4-0.2,4-1.8L22.4,22.7z"/>
<g class="st2">
	<path class="st3" d="M37.2,39.5H14.4c-0.1,0-0.3-0.1-0.3-0.2c-0.1-0.1,0-0.3,0-0.4l20.3-27.2H15.8c-0.2,0-0.4-0.2-0.4-0.4
		c0-0.2,0.2-0.4,0.4-0.4h19.3c0.1,0,0.3,0.1,0.3,0.2c0.1,0.1,0,0.3,0,0.4L15.2,38.7h21.9c0.2,0,0.4,0.2,0.4,0.4
		C37.6,39.3,37.4,39.5,37.2,39.5z"/>
	<path class="st3" d="M37.2,39.5H14.4c-0.1,0-0.3-0.1-0.3-0.2c-0.1-0.1,0-0.3,0-0.4l20.3-27.2H15.8c-0.2,0-0.4-0.2-0.4-0.4
		c0-0.2,0.2-0.4,0.4-0.4h19.3c0.1,0,0.3,0.1,0.3,0.2c0.1,0.1,0,0.3,0,0.4L15.2,38.7h21.9c0.2,0,0.4,0.2,0.4,0.4
		C37.6,39.3,37.4,39.5,37.2,39.5z"/>
</g>
<path d="M32.3,31.6c0.2,0,0.4-0.1,0.4-0.3l0,0c0.2-0.7,0.2-1.5,0-2.3c1.6,0,3.2-0.7,4.2-2c0.1-0.1,0.1-0.4,0-0.5
	c-0.9-1.4-2.5-2.4-4.3-2.4c-1.7-0.1-3.4,0.7-4.5,2c0,0,0,0,0,0c0,0,0,0.1,0,0.1l0,0c-0.4,1.3-0.1,2.7,0.6,3.8
	C29.6,30.9,30.9,31.6,32.3,31.6z M29.7,25.9c0.8-0.7,1.9-1.1,3.1-1c1.3,0,2.5,0.7,3.3,1.7c-0.8,0.9-2,1.4-3.3,1.4c0,0-0.1,0-0.2,0
	c0,0-0.1,0-0.1,0c-0.1-0.2-0.2-0.4-0.3-0.5C31.5,26.7,30.6,26.1,29.7,25.9z M29.6,29.3c-0.5-0.7-0.7-1.7-0.6-2.6
	c0.9,0.1,1.7,0.5,2.3,1.3s0.7,1.7,0.6,2.6C31,30.5,30.2,30,29.6,29.3z"/>
</svg>
