<?xml version="1.0" encoding="utf-8"?>
<!-- Generator: Adobe Illustrator 22.0.0, SVG Export Plug-In . SVG Version: 6.00 Build 0)  -->
<svg version="1.1" id="Layer_1" xmlns="http://www.w3.org/2000/svg" xmlns:xlink="http://www.w3.org/1999/xlink" x="0px" y="0px"
	 viewBox="0 0 666.9 48.3" style="enable-background:new 0 0 666.9 48.3;" xml:space="preserve">
<style type="text/css">
	.st0{fill:none;stroke:#009933;stroke-miterlimit:10;}
</style>
<title>Asset 1</title>
<g>
	<path class="st0" d="M116.5,45.8h-39c-1.9,0-3.5-0.8-4.3-2s-0.6-2.7,0.4-3.8l31.7-30.6H80.2c-2.7,0-4.9-1.7-4.9-3.6
		s2.3-3.5,4.9-3.5h35.2c1.9,0,3.5,0.8,4.3,2s0.6,2.7-0.4,3.8L87.6,38.5h29c2.7,0,4.9,1.7,4.9,3.6S119.2,45.8,116.5,45.8z"/>
	<path class="st0" d="M166.3,45.8c-2.7,0-4.9-1.7-4.9-3.6V5.8c0-2,2.3-3.6,4.9-3.6s4.9,1.7,4.9,3.6v36.4
		C171.2,44.1,169,45.8,166.3,45.8z"/>
	<path class="st0" d="M255.9,45.8c-1.4,0-2.9-0.5-3.9-1.4l-30.2-28.2v25.9c0,2-2.3,3.6-4.9,3.6c-2.7,0-4.9-1.7-4.9-3.6V5.8
		c0-1.5,1.4-2.9,3.3-3.5c2.1-0.6,4.1,0,5.6,1.2L251,31.7V5.8c0-2.1,2.3-3.6,4.9-3.6c2.7,0,4.9,1.7,4.9,3.6v36.4
		c0,1.5-1.4,2.9-3.3,3.3C257,45.6,256.3,45.8,255.9,45.8z"/>
	<path class="st0" d="M340.9,40c1.4,1.7,1,3.9-1.2,5.2c-2.3,1.1-5.3,0.8-6.8-0.9l-15.2-15.8l-7.6,6.7v7c0,2-2.3,3.6-4.9,3.6
		c-2.7,0-4.9-1.7-4.9-3.6V5.8c0-2,2.3-3.6,4.9-3.6c2.9,0,4.9,1.7,4.9,3.6v18l23-20.3c1.6-1.5,4.7-1.7,6.8-0.5s2.3,3.5,0.6,5.2
		L324,22.8L340.9,40z"/>
	<path class="st0" d="M422.1,40c1.4,1.7,1,3.9-1.2,5.2c-2.3,1.1-5.3,0.8-6.8-0.9l-15.2-15.8l-7.6,6.7v7c0,2-2.3,3.6-4.9,3.6
		s-4.9-1.7-4.9-3.6V5.8c0-2,2.3-3.6,4.9-3.6c2.9,0,4.9,1.7,4.9,3.6v18l23-20.3c1.6-1.5,4.7-1.7,6.8-0.5s2.3,3.5,0.6,5.2l-16.4,14.5
		L422.1,40z"/>
	<path class="st0" d="M486.6,45.8c-13.4,0-24.3-8-24.3-17.9V5.8c0-2.1,2.3-3.6,4.9-3.6c2.7,0,4.9,1.7,4.9,3.6v22.1
		c0,5.8,6.6,10.6,14.4,10.6s14.4-4.8,14.4-10.6V5.8c0-2.1,2.3-3.6,4.9-3.6c2.7,0,4.9,1.7,4.9,3.6v22.1
		C510.9,37.8,500,45.8,486.6,45.8z"/>
	<path class="st0" d="M593.9,17.9c0,8.8-9.7,15.8-21.4,15.8H561V42c0,2-2.3,3.6-4.9,3.6s-4.9-1.7-4.9-3.6V5.6c0-2,2.3-3.6,4.9-3.6
		h16.4C584.3,2.2,593.9,9.3,593.9,17.9z M584.1,17.9c0-4.7-5.1-8.5-11.5-8.5H561v17.1h11.5C578.9,26.5,584.1,22.8,584.1,17.9z"/>
</g>
</svg>
