<?xml version="1.0" encoding="utf-8"?>
<!-- Generator: Adobe Illustrator 22.0.0, SVG Export Plug-In . SVG Version: 6.00 Build 0)  -->
<svg version="1.1" id="Layer_1" xmlns="http://www.w3.org/2000/svg" xmlns:xlink="http://www.w3.org/1999/xlink" x="0px" y="0px"
	 viewBox="0 0 132.7 132.5" style="enable-background:new 0 0 132.7 132.5;" xml:space="preserve">
<style type="text/css">
	.st0{display:none;fill:#231F20;}
</style>
<title>Asset 2</title>
<circle class="st0" cx="128.6" cy="61.3" r="1.7"/>
<circle class="st0" cx="3.5" cy="61.3" r="1.7"/>
<g>
	<path d="M61.7,8.2c-0.3,0.2-0.9,0.4-1.7,0.5C58.2,9,56.7,8,56.4,5.9c-0.3-2,0.9-3.6,2.9-3.8c0.8-0.1,1.3,0,1.6,0.1l-0.1,0.7
		c-0.3-0.1-0.8-0.2-1.3-0.1c-1.5,0.2-2.4,1.3-2.1,3c0.2,1.6,1.3,2.5,2.8,2.2c0.5-0.1,1-0.2,1.3-0.5L61.7,8.2z"/>
	<path d="M67.8,4.8c0.1,2.2-1.2,3.5-2.9,3.5c-1.7,0.1-3-1.2-3-3.2c-0.1-2.1,1.2-3.5,2.9-3.5C66.5,1.6,67.7,2.9,67.8,4.8z M62.8,5.1
		c0.1,1.4,0.9,2.6,2.2,2.5c1.3-0.1,2-1.3,2-2.8c0-1.3-0.8-2.6-2.2-2.6C63.4,2.4,62.7,3.7,62.8,5.1z"/>
	<path d="M69.2,1.7l3.5,0.2l0,0.7L70,2.5l-0.1,2.2l2.5,0.1l0,0.7l-2.5-0.1l-0.2,2.9l-0.8,0L69.2,1.7z"/>
	<path d="M74.3,2.1l3.5,0.5l-0.1,0.7L75,2.9L74.8,5l2.4,0.3L77.1,6l-2.4-0.3l-0.4,2.9l-0.8-0.1L74.3,2.1z"/>
	<path d="M81.9,6.9l-2.5-0.5l-0.5,2.3l2.7,0.6L81.5,10l-3.6-0.8l1.4-6.3l3.4,0.7l-0.1,0.7L80,3.7l-0.4,2L82,6.2L81.9,6.9z"/>
	<path d="M86.5,8.3l-2.4-0.7l-0.7,2.2l2.7,0.8l-0.2,0.7l-3.5-1.1L84.3,4l3.4,1l-0.2,0.7l-2.6-0.8l-0.6,2l2.4,0.7L86.5,8.3z"/>
	<path d="M86.8,11.1c0.1-0.3,0.4-0.5,0.8-0.4c0.3,0.1,0.4,0.4,0.3,0.8c-0.1,0.3-0.4,0.5-0.8,0.4C86.8,11.7,86.7,11.4,86.8,11.1z"/>
	<path d="M93.7,8.2l-1.8-0.8l0.3-0.6l4.3,2l-0.3,0.6l-1.8-0.8L92,13.8l-0.8-0.4L93.7,8.2z"/>
	<path d="M98.7,14l-2.2-1.3l-1.2,2l2.4,1.4l-0.3,0.6l-3.2-1.8l3.2-5.6l3,1.7l-0.3,0.6l-2.3-1.3l-1,1.8l2.2,1.3L98.7,14z"/>
	<path d="M100.3,16.2l-1.7,1.3L97.9,17l5.5-4.1l0.8,0.6l-1.9,6.6l-0.7-0.5l0.6-2.1L100.3,16.2z M102.4,16.9L103,15
		c0.1-0.4,0.3-0.8,0.4-1.2l0,0c-0.3,0.3-0.6,0.5-0.9,0.8l-1.6,1.2L102.4,16.9z"/>
	<path d="M103.1,20.1c0.2-0.3,0.6-0.3,0.8-0.1c0.3,0.2,0.3,0.6,0.1,0.8c-0.2,0.3-0.6,0.3-0.8,0.1C102.9,20.8,102.9,20.4,103.1,20.1z
		"/>
	<path d="M110.4,18.6c0.3,0.2,0.8,0.6,1.2,1c0.6,0.6,0.9,1.1,0.9,1.6c0.1,0.4-0.1,0.8-0.4,1.2c-0.4,0.4-1.1,0.6-1.8,0.3l0,0
		c0.3,0.5,0.5,1.4-0.2,2.1c-0.4,0.4-0.8,0.5-1.3,0.5c-0.6,0-1.3-0.4-2-1.1c-0.4-0.4-0.7-0.7-0.9-1L110.4,18.6z M107,23.3
		c0.1,0.1,0.3,0.3,0.5,0.5c0.6,0.6,1.4,0.9,2.1,0.3c0.6-0.6,0.3-1.4-0.3-2.1l-0.5-0.5L107,23.3z M109.1,21.1l0.5,0.5
		c0.6,0.6,1.3,0.6,1.8,0.2c0.5-0.5,0.3-1.2-0.3-1.8c-0.3-0.3-0.5-0.4-0.6-0.5L109.1,21.1z"/>
	<path d="M111.8,26.2l-2,0.8l-0.6-0.7l6.4-2.5l0.7,0.8l-3.5,5.9l-0.6-0.7l1.1-1.8L111.8,26.2z M113.7,27.4l1-1.7
		c0.2-0.4,0.5-0.7,0.7-1l0,0c-0.4,0.2-0.7,0.4-1.1,0.5l-1.8,0.7L113.7,27.4z"/>
	<path d="M118.5,27.4l0.5,0.7l-2.6,1.8l0,0c0.3,0,0.6,0,0.9,0l3.1,0.2l0.6,0.9l-3.6-0.3l-1.6,4.2l-0.6-0.8l1.4-3.6l-0.9-0.1l-2,1.4
		l-0.5-0.7L118.5,27.4z"/>
	<path d="M120.4,36.8l-1.3-2.2l-2,1.2l1.4,2.4l-0.6,0.4l-1.8-3.2l5.6-3.3l1.8,3l-0.6,0.4l-1.3-2.3l-1.8,1l1.3,2.2L120.4,36.8z"/>
	<path d="M124.1,36.7c0.3,0.3,0.6,0.9,0.8,1.4c0.4,0.8,0.5,1.4,0.3,1.9c-0.1,0.4-0.4,0.8-0.9,1c-0.8,0.4-1.5,0.1-2-0.4l0,0
		c0.1,0.5-0.2,1-0.8,1.4c-0.7,0.6-1.2,1-1.4,1.2l-0.4-0.8c0.1-0.2,0.6-0.5,1.2-1.1c0.7-0.6,0.9-1,0.6-1.7l-0.3-0.7l-2.5,1.2
		l-0.4-0.8L124.1,36.7z M121.8,38.7l0.4,0.8c0.4,0.8,1.1,1.1,1.7,0.8c0.8-0.4,0.8-1.1,0.5-1.9c-0.2-0.4-0.3-0.6-0.4-0.7L121.8,38.7z
		"/>
	<path d="M120.9,45.2l2.6-1l2.8-3.2l0.3,0.9l-1.4,1.5c-0.4,0.4-0.7,0.7-1,1.1l0,0c0.5,0,0.9,0.1,1.5,0.1l2,0.3l0.3,0.9l-4.3-0.7
		l-2.6,1L120.9,45.2z"/>
	<path d="M110.7,103.4c0.1-0.3,0.3-0.9,0.8-1.5c1.1-1.4,2.9-1.8,4.6-0.5c1.6,1.3,1.8,3.2,0.5,4.8c-0.5,0.6-1,0.9-1.2,1l-0.4-0.6
		c0.3-0.2,0.7-0.4,1-0.9c1-1.2,0.8-2.6-0.5-3.7c-1.2-1-2.6-0.9-3.6,0.3c-0.3,0.4-0.6,0.9-0.6,1.2L110.7,103.4z"/>
	<path d="M108.6,110.1c-1.6-1.6-1.5-3.4-0.3-4.5c1.2-1.2,3-1.2,4.4,0.2c1.5,1.4,1.5,3.3,0.3,4.5C111.7,111.6,110,111.4,108.6,110.1z
		 M112,106.4c-1-1-2.4-1.3-3.3-0.4c-0.9,1-0.6,2.3,0.5,3.4c0.9,0.9,2.4,1.4,3.3,0.4C113.5,108.8,113.1,107.4,112,106.4z"/>
	<path d="M109.7,113.3l-2.7,2.3l-0.5-0.5l2-1.7l-1.4-1.6l-1.9,1.6l-0.4-0.5l1.9-1.6l-1.9-2.2l0.6-0.5L109.7,113.3z"/>
	<path d="M105.8,116.5l-2.8,2l-0.4-0.6l2.2-1.5l-1.3-1.8l-2,1.4l-0.4-0.6l2-1.4l-1.7-2.4l0.7-0.5L105.8,116.5z"/>
	<path d="M96.9,118.2l2.2-1.3l-1.2-2l-2.4,1.5l-0.4-0.6l3.1-1.9l3.4,5.6l-3,1.8l-0.4-0.6l2.3-1.4l-1.1-1.8l-2.2,1.3L96.9,118.2z"/>
	<path d="M92.6,120.5l2.3-1.1l-1-2.1l-2.5,1.3l-0.3-0.6l3.3-1.6l2.9,5.8l-3.1,1.6l-0.3-0.6l2.4-1.2l-0.9-1.8l-2.3,1.1L92.6,120.5z"
		/>
	<path d="M90.5,118.6c0.1,0.3,0,0.7-0.3,0.8c-0.3,0.1-0.6,0-0.8-0.3c-0.1-0.3,0-0.6,0.3-0.8C90.1,118.1,90.4,118.3,90.5,118.6z"/>
	<path d="M87.5,125.4l1.9-0.6l0.2,0.7L85,127l-0.2-0.7l1.9-0.6l-1.8-5.5l0.8-0.3L87.5,125.4z"/>
	<path d="M79.8,124.7l2.5-0.6l-0.6-2.3l-2.7,0.7l-0.2-0.7l3.5-0.9l1.5,6.3l-3.4,0.8l-0.2-0.7l2.6-0.6l-0.5-2l-2.5,0.6L79.8,124.7z"
		/>
	<path d="M77.2,124.2l0.4-2.1l0.9-0.1l-1.2,6.7l-1,0.1l-3.1-6.1l0.9-0.1l1,1.9L77.2,124.2z M75.2,125.1l0.9,1.8
		c0.2,0.4,0.4,0.8,0.5,1.1l0,0c0-0.4,0.1-0.8,0.2-1.2l0.4-2L75.2,125.1z"/>
	<path d="M72.4,123.2c0,0.4-0.2,0.6-0.5,0.7c-0.3,0-0.6-0.2-0.6-0.6c0-0.3,0.2-0.6,0.5-0.7C72.2,122.6,72.4,122.9,72.4,123.2z"/>
	<path d="M68.2,129.4c-0.4,0.1-0.9,0.1-1.5,0.1c-0.8,0-1.4-0.2-1.8-0.5c-0.3-0.3-0.5-0.6-0.5-1.2c0-0.6,0.4-1.2,1.1-1.4v0
		c-0.6-0.2-1.3-0.7-1.3-1.6c0-0.6,0.2-1,0.6-1.3c0.5-0.4,1.2-0.6,2.3-0.6c0.6,0,1,0.1,1.3,0.1L68.2,129.4z M67.4,123.6
		c-0.2,0-0.4,0-0.7,0c-0.9,0-1.7,0.3-1.7,1.2c0,0.9,0.7,1.3,1.7,1.3l0.7,0L67.4,123.6z M67.4,126.7l-0.8,0c-0.9,0-1.4,0.4-1.4,1.1
		c0,0.8,0.6,1.1,1.4,1.1c0.4,0,0.6,0,0.7,0L67.4,126.7z"/>
	<path d="M61.9,124.8l0.9-2l0.9,0.1l-2.9,6.2l-1-0.1l-1.5-6.7l0.9,0.1l0.5,2.1L61.9,124.8z M59.8,125.2l0.4,1.9
		c0.1,0.4,0.2,0.8,0.2,1.2l0,0c0.1-0.4,0.3-0.8,0.5-1.1l0.8-1.8L59.8,125.2z"/>
	<path d="M56.2,128.5l-0.8-0.2l0.6-3.1l0,0c-0.2,0.2-0.4,0.4-0.6,0.6l-2.4,2l-1-0.2l2.9-2.2l-1.7-4.2l1,0.2l1.5,3.6l0.7-0.6l0.5-2.4
		l0.8,0.2L56.2,128.5z"/>
	<path d="M48.4,123l2.4,0.7l0.7-2.2l-2.7-0.8L49,120l3.5,1l-1.8,6.2l-3.4-1l0.2-0.7l2.6,0.8l0.6-2l-2.4-0.7L48.4,123z"/>
	<path d="M45.8,125.7c-0.4-0.1-1-0.2-1.5-0.5c-0.8-0.3-1.3-0.7-1.6-1.2c-0.2-0.4-0.2-0.9,0-1.3c0.3-0.8,1-1.1,1.7-1.1l0,0
		c-0.4-0.3-0.5-0.9-0.4-1.6c0.1-0.9,0.2-1.6,0.2-1.8l0.8,0.3c0,0.2,0,0.8-0.2,1.6c-0.1,0.9,0.1,1.3,0.8,1.6l0.7,0.3l1-2.6l0.8,0.3
		L45.8,125.7z M46.1,122.6l-0.8-0.3c-0.8-0.3-1.5-0.1-1.8,0.6c-0.3,0.8,0.1,1.3,1,1.7c0.4,0.1,0.7,0.2,0.8,0.2L46.1,122.6z"/>
	<path d="M42.2,117.2l-1.2,2.5l0.2,4.3l-0.9-0.4l0-2c0-0.6,0-1,0-1.5l0,0c-0.4,0.3-0.7,0.6-1.2,0.9l-1.6,1.2l-0.9-0.4l3.6-2.4
		l1.2-2.5L42.2,117.2z"/>
	<path d="M16.4,92.8c0.3,0.2,0.7,0.6,1.1,1.3c0.9,1.6,0.6,3.3-1.2,4.4c-1.7,1-3.6,0.6-4.7-1.2c-0.4-0.7-0.5-1.2-0.5-1.5l0.7-0.2
		c0,0.4,0.2,0.8,0.4,1.3c0.8,1.3,2.1,1.7,3.6,0.8c1.4-0.8,1.8-2.1,1-3.5c-0.3-0.4-0.6-0.8-0.9-1L16.4,92.8z"/>
	<path d="M11,88.5c2-0.9,3.7-0.2,4.4,1.3c0.7,1.6,0,3.2-1.8,4c-1.9,0.9-3.6,0.3-4.4-1.3C8.5,90.9,9.2,89.3,11,88.5z M13.2,93
		c1.3-0.6,2.1-1.8,1.5-3c-0.6-1.2-2-1.4-3.3-0.7c-1.2,0.5-2.1,1.7-1.5,3C10.4,93.5,11.9,93.6,13.2,93z"/>
	<path d="M7.5,88.4l-1.2-3.3L7,84.8l0.9,2.5l2-0.7l-0.8-2.3l0.7-0.2l0.8,2.3l2.8-1l0.3,0.8L7.5,88.4z"/>
	<path d="M5.9,83.5L5,80.1L5.7,80l0.7,2.6L8.5,82l-0.6-2.4l0.7-0.2l0.6,2.4L12,81l0.2,0.8L5.9,83.5z"/>
	<path d="M7.5,74.7l0.4,2.5l2.3-0.4L9.7,74l0.7-0.1l0.6,3.6l-6.4,1.1l-0.6-3.5L4.8,75l0.5,2.6l2-0.4l-0.4-2.5L7.5,74.7z"/>
	<path d="M7,69.8l0.2,2.5l2.3-0.2l-0.3-2.8l0.7-0.1l0.4,3.6l-6.5,0.6L3.5,70L4.2,70l0.3,2.7l2-0.2l-0.2-2.5L7,69.8z"/>
	<path d="M9.4,68.5c-0.4,0-0.6-0.2-0.6-0.6c0-0.3,0.2-0.6,0.6-0.6c0.3,0,0.6,0.2,0.6,0.6C10,68.3,9.8,68.5,9.4,68.5z"/>
	<path d="M4.1,63.3l-0.1,2l-0.7,0l0.2-4.8l0.7,0l-0.1,2l5.8,0.2l0,0.8L4.1,63.3z"/>
	<path d="M7.5,56.4l-0.3,2.5l2.3,0.3l0.3-2.8l0.7,0.1l-0.4,3.6l-6.4-0.8l0.4-3.5l0.7,0.1l-0.3,2.6l2,0.3l0.3-2.5L7.5,56.4z"/>
	<path d="M8.9,54.1l1.9,1.1L10.6,56l-5.9-3.5l0.2-1l6.8-0.8l-0.2,0.9l-2.1,0.2L8.9,54.1z M8.7,51.9l-2,0.2c-0.4,0.1-0.8,0.1-1.2,0.1
		l0,0c0.4,0.2,0.7,0.4,1.1,0.6l1.7,1L8.7,51.9z"/>
	<path d="M11.5,50c-0.3-0.1-0.5-0.4-0.4-0.7c0.1-0.3,0.4-0.5,0.7-0.4c0.3,0.1,0.5,0.4,0.4,0.7C12.1,50,11.8,50.1,11.5,50z"/>
	<path d="M7.2,43.8c0.1-0.4,0.2-0.9,0.4-1.5c0.3-0.8,0.6-1.2,1.1-1.5c0.4-0.2,0.8-0.3,1.3-0.1c0.6,0.2,0.9,0.8,0.9,1.5l0,0
		c0.4-0.5,1.1-1,2-0.6c0.5,0.2,0.8,0.6,1,1c0.2,0.6,0.1,1.3-0.3,2.3c-0.2,0.5-0.4,0.9-0.5,1.2L7.2,43.8z M10,44l0.3-0.7
		c0.3-0.8,0.1-1.5-0.5-1.7c-0.7-0.3-1.2,0.1-1.5,0.9c-0.1,0.4-0.2,0.6-0.2,0.7L10,44z M12.9,45.2c0.1-0.1,0.2-0.4,0.3-0.6
		c0.3-0.8,0.3-1.7-0.6-2c-0.8-0.3-1.4,0.2-1.8,1.1l-0.3,0.6L12.9,45.2z"/>
	<path d="M13.8,39.6l1.5,1.5l-0.4,0.8L10.1,37l0.5-0.9l6.8,1l-0.4,0.8l-2.1-0.3L13.8,39.6z M14.1,37.4l-2-0.3
		c-0.4-0.1-0.8-0.2-1.2-0.2l0,0c0.3,0.3,0.6,0.5,0.9,0.8l1.4,1.4L14.1,37.4z"/>
	<path d="M12.3,32.9l0.5-0.7l2.6,1.7l0,0c-0.1-0.3-0.2-0.6-0.3-0.8l-1-3l0.6-0.9l1.1,3.5l4.5-0.1l-0.5,0.8l-3.8,0.1l0.3,0.9l2.1,1.3
		l-0.5,0.7L12.3,32.9z"/>
	<path d="M20.2,27.6l-1.5,2l1.9,1.4l1.7-2.2l0.6,0.4l-2.2,2.9l-5.2-3.9l2.1-2.8l0.6,0.4L16.5,28l1.6,1.2l1.5-2L20.2,27.6z"/>
	<path d="M18.6,24.2c0.2-0.4,0.6-0.9,1-1.3c0.6-0.7,1.1-1,1.7-1c0.4,0,0.9,0.1,1.3,0.4c0.6,0.6,0.7,1.4,0.4,2l0,0
		c0.5-0.3,1-0.2,1.6,0.2c0.8,0.4,1.4,0.8,1.7,0.8L25.6,26c-0.2,0-0.7-0.3-1.4-0.7c-0.8-0.5-1.3-0.4-1.8,0.1L21.9,26l2.1,1.9
		l-0.6,0.6L18.6,24.2z M21.4,25.6L22,25c0.6-0.7,0.6-1.4,0.1-1.9c-0.6-0.6-1.3-0.4-1.9,0.3c-0.3,0.3-0.4,0.5-0.5,0.7L21.4,25.6z"/>
	<path d="M27.8,23.9l-1.9-2l-4-1.3l0.7-0.6l1.9,0.7c0.5,0.2,0.9,0.3,1.4,0.5l0,0c-0.2-0.4-0.3-0.9-0.4-1.4l-0.5-1.9l0.7-0.7l1,4.2
		l1.9,2L27.8,23.9z"/>
</g>
</svg>
