<?xml version="1.0" encoding="utf-8"?>
<!-- Generator: Adobe Illustrator 22.0.0, SVG Export Plug-In . SVG Version: 6.00 Build 0)  -->
<svg version="1.1" id="Layer_1" xmlns="http://www.w3.org/2000/svg" xmlns:xlink="http://www.w3.org/1999/xlink" x="0px" y="0px"
	 viewBox="0 0 101.4 101.4" style="enable-background:new 0 0 101.4 101.4;" xml:space="preserve">
<style type="text/css">
	.st0{fill:#231F20;}
</style>
<title>Asset 3</title>
<path class="st0" d="M101.4,50.7c0-28-22.7-50.7-50.7-50.7S0,22.7,0,50.7s22.7,50.7,50.7,50.7c0,0,0,0,0,0
	C78.7,101.4,101.4,78.7,101.4,50.7z M4.8,52.1h91.8L50.7,98L4.8,52.1z M54.3,98.4l44.1-44.1C96.6,77.9,77.9,96.6,54.3,98.4z
	 M98.4,47.2L54.3,3C77.9,4.8,96.6,23.6,98.4,47.2z M96.6,49.3H4.8L50.7,3.4L96.6,49.3z M47.2,3L3,47.2C4.8,23.6,23.6,4.8,47.2,3z
	 M3,54.3l44.1,44.1C23.6,96.6,4.8,77.9,3,54.3z"/>
<polygon class="st0" points="29.2,43.3 37.1,43.3 37.1,41.3 31.4,41.3 31.4,38.3 36.7,38.3 36.7,36.4 31.4,36.4 31.4,33.4 
	37.1,33.4 37.1,31.5 29.2,31.5 "/>
<path class="st0" d="M42.7,34.4c0-0.7,0.7-1.3,1.4-1.3c0,0,0,0,0.1,0c0.8,0,1.6,0.5,1.9,1.3l1.8-1.1c-0.7-1.3-2.1-2.1-3.6-2.1
	c-2,0-3.7,1.2-3.7,3.2c0,3.8,5.7,3,5.7,5.5c0,0.8-0.7,1.5-1.9,1.5c-1.2,0.1-2.3-0.8-2.4-2c0,0,0-0.1,0-0.1l-2.1,0.5
	c0.4,2.1,2.3,3.6,4.5,3.5c2.2,0,4.1-1.3,4.1-3.6C48.4,35.9,42.7,36.7,42.7,34.4z"/>
<polygon class="st0" points="50.1,33.4 53.8,33.4 53.8,43.3 55.9,43.3 55.9,33.4 59.6,33.4 59.6,31.5 50.1,31.5 "/>
<path class="st0" d="M72.2,37.5c0-3.8-2.1-6-6.1-6h-3.4v11.8H66C70,43.3,72.2,41.1,72.2,37.5z M64.8,41.3v-7.9H66c2.9,0,4,1.1,4,3.9
	c0,2.9-1.6,3.9-4.2,3.9H64.8z"/>
<g>
	<path d="M32.6,70.3v-1l1.2-1.2c3-2.8,4.3-4.4,4.4-6.1c0-1.2-0.6-2.3-2.3-2.3c-1.1,0-1.9,0.5-2.5,1l-0.5-1.1c0.8-0.7,2-1.2,3.3-1.2
		c2.5,0,3.6,1.7,3.6,3.4c0,2.2-1.6,3.9-4,6.3l-0.9,0.9v0H40v1.3H32.6z"/>
	<path d="M49.6,64.3c0,4-1.5,6.2-4.1,6.2c-2.3,0-3.8-2.1-3.9-6c0-3.9,1.7-6.1,4.1-6.1C48.2,58.3,49.6,60.5,49.6,64.3z M43.2,64.5
		c0,3,0.9,4.8,2.4,4.8c1.6,0,2.4-1.9,2.4-4.9c0-2.9-0.7-4.8-2.4-4.8C44.2,59.6,43.2,61.3,43.2,64.5z"/>
	<path d="M54.5,60L54.5,60l-2.1,1.1l-0.3-1.2l2.6-1.4H56v11.7h-1.5V60z"/>
	<path d="M60.1,67.3c0-1.5,0.9-2.5,2.3-3.1l0-0.1c-1.3-0.6-1.9-1.6-1.9-2.6c0-1.9,1.6-3.1,3.6-3.1c2.3,0,3.4,1.4,3.4,2.9
		c0,1-0.5,2.1-1.9,2.7V64c1.5,0.6,2.4,1.6,2.4,3c0,2-1.7,3.4-4,3.4C61.6,70.4,60.1,69,60.1,67.3z M66.4,67.2c0-1.4-1-2.1-2.6-2.6
		c-1.4,0.4-2.1,1.3-2.1,2.4c-0.1,1.2,0.8,2.2,2.3,2.2C65.5,69.3,66.4,68.4,66.4,67.2z M62.1,61.4c0,1.2,0.9,1.8,2.2,2.2
		c1-0.3,1.8-1.1,1.8-2.1c0-0.9-0.6-1.9-2-1.9C62.8,59.5,62.1,60.3,62.1,61.4z"/>
</g>
</svg>
