<svg xmlns="http://www.w3.org/2000/svg" viewBox="0 0 255.45093 31.79492"><defs><style>.a{opacity:0.25;}.b{fill:#fff;}.c{fill:none;stroke:#24272a;stroke-miterlimit:10;}</style></defs><title>Asset 2</title><g class="a"><path class="b" d="M22.95435,26.20508v4.66211H.5V.92773H22.35547V5.58984H6.06006V13.374h14.4563v4.57666H6.06006v8.2544Z"/><path class="b" d="M73.21191.92773,60.16675,30.86719H54.69214L41.60449.92773H47.635l9.96558,23.0962L67.65161.92773Z"/><path class="b" d="M115.94116,26.20508v4.66211H93.48657V.92773H115.342V5.58984H99.04663V13.374h14.4563v4.57666H99.04663v8.2544Z"/><path class="b" d="M165.85571.92773V30.86719h-4.57617l-16.50976-20.273v20.273h-5.51709V.92773h4.57617l16.50976,20.27344V.92773Z"/><path class="b" d="M197.08032,5.63281h-9.92285V.92773h25.40576V5.63281h-9.92285V30.86719h-5.56006Z"/><path class="b" d="M231.04224,27.70215l1.92431-4.31983a16.59038,16.59038,0,0,0,9.88037,3.29346c4.66162,0,6.6294-1.668,6.6294-3.89209,0-6.45849-17.79248-2.22412-17.79248-13.34424C231.68384,4.606,235.533.5,243.74487.5a18.93069,18.93069,0,0,1,9.96534,2.65186l-1.75342,4.31982a16.63544,16.63544,0,0,0-8.2544-2.35205c-4.61963,0-6.50146,1.79639-6.50146,4.063,0,6.37256,17.75,2.22412,17.75,13.21582,0,4.79052-3.89209,8.89648-12.104,8.89648C238.18481,31.29492,233.52271,29.84082,231.04224,27.70215Z"/></g><path class="c" d="M22.95435,26.20508v4.66211H.5V.92773H22.35547V5.58984H6.06006V13.374h14.4563v4.57666H6.06006v8.2544Z"/><path class="c" d="M73.21191.92773,60.16675,30.86719H54.69214L41.60449.92773H47.635l9.96558,23.0962L67.65161.92773Z"/><path class="c" d="M115.94116,26.20508v4.66211H93.48657V.92773H115.342V5.58984H99.04663V13.374h14.4563v4.57666H99.04663v8.2544Z"/><path class="c" d="M165.85571.92773V30.86719h-4.57617l-16.50976-20.273v20.273h-5.51709V.92773h4.57617l16.50976,20.27344V.92773Z"/><path class="c" d="M197.08032,5.63281h-9.92285V.92773h25.40576V5.63281h-9.92285V30.86719h-5.56006Z"/><path class="c" d="M231.04224,27.70215l1.92431-4.31983a16.59038,16.59038,0,0,0,9.88037,3.29346c4.66162,0,6.6294-1.668,6.6294-3.89209,0-6.45849-17.79248-2.22412-17.79248-13.34424C231.68384,4.606,235.533.5,243.74487.5a18.93069,18.93069,0,0,1,9.96534,2.65186l-1.75342,4.31982a16.63544,16.63544,0,0,0-8.2544-2.35205c-4.61963,0-6.50146,1.79639-6.50146,4.063,0,6.37256,17.75,2.22412,17.75,13.21582,0,4.79052-3.89209,8.89648-12.104,8.89648C238.18481,31.29492,233.52271,29.84082,231.04224,27.70215Z"/></svg>